<?xml version="1.0" encoding="UTF-8"?>
<svg width="27px" height="16px" viewBox="0 0 27 16" version="1.1" xmlns="http://www.w3.org/2000/svg" xmlns:xlink="http://www.w3.org/1999/xlink">
    <title>SL3/Hoadon/hoadon Copy 2@1.5x</title>
    <defs>
        <linearGradient x1="50%" y1="16.974954%" x2="50%" y2="91.7882583%" id="linearGradient-1">
            <stop stop-color="#FF86B5" offset="0%"></stop>
            <stop stop-color="#E22B80" offset="100%"></stop>
        </linearGradient>
    </defs>
    <g id="1.-Home" stroke="none" stroke-width="1" fill="none" fill-rule="evenodd">
        <g id="New-Home" transform="translate(-173.000000, -548.000000)">
            <g id="Group-14" transform="translate(0.000000, 472.000000)">
                <g id="Group-19" transform="translate(153.000000, 60.000000)">
                    <g id="Group" transform="translate(18.000000, 8.000000)">
                        <g id="Group" transform="translate(2.666667, 8.000000)">
                            <path d="M3,0 L16.5555556,0 C18.2124098,-7.48448398e-16 19.5555556,1.34314575 19.5555556,3 L19.5555556,13 C19.5555556,14.6568542 18.2124098,16 16.5555556,16 L3,16 C1.34314575,16 -2.41183085e-16,14.6568542 0,13 L0,3 C-6.46995335e-16,1.34314575 1.34314575,-1.39730022e-16 3,0 Z" id="Rectangle" fill="url(#linearGradient-1)"></path>
                            <path d="M24.4483699,1.64742362 L19.5555556,4.43917008 L19.5555556,4.43917008 L19.5555556,11.563748 L24.4486432,14.3533556 C24.8751226,14.5964966 25.4179572,14.4478715 25.6610982,14.0213921 C25.7375646,13.8872668 25.7777778,13.7355377 25.7777778,13.5811463 L25.7777778,2.41947706 C25.7777778,1.92855728 25.3798087,1.53058817 24.8888889,1.53058817 C24.7343909,1.53058817 24.5825607,1.57085692 24.4483699,1.64742362 Z" id="Path" fill="#FFB2D0"></path>
                            <path d="M6.66666667,4.54495141 L6.66666667,11.5393398 C6.66666667,12.2987313 7.28227514,12.9143398 8.04166667,12.9143398 C8.31982031,12.9143398 8.59143354,12.8299795 8.8206438,12.6723974 L13.9074717,9.17520324 C14.5332422,8.74498605 14.6917694,7.88893892 14.2615522,7.26316846 C14.1661929,7.12446395 14.0461762,7.0044473 13.9074717,6.90908795 L8.8206438,3.41189376 C8.19487334,2.98167657 7.33882621,3.14020382 6.90860902,3.76597427 C6.75102697,3.99518454 6.66666667,4.26679777 6.66666667,4.54495141 Z" id="Path-24" fill="#FFFFFF"></path>
                        </g>
                    </g>
                </g>
            </g>
        </g>
    </g>
</svg>