<svg id="OBJECTS" xmlns="http://www.w3.org/2000/svg" viewBox="0 0 283.46 283.46"><defs><style>.cls-1{fill:#c26ca5;}.cls-2{fill:#a11f6b;}</style></defs><title>Heart</title><path class="cls-1" d="M173.39,212.53l.44,38.64s112.4-94.68,107.6-162.24c-4.18-58.63-42.24-74.35-76.93-74-38.18.41-65.81,51.47-65.81,51.47S119.53,10.57,52,21.28L78.15,51.84s38.56-6.89,60,33.92c0,0,28.43-47,67.21-34.59s48.14,55.79,32.36,83C218.62,167.06,187.79,205.12,173.39,212.53Z"/><path class="cls-2" d="M140.23,268.46c-8.81,1.87-45.62-46.16-65.92-62S-1.23,148.55,2,81.7,27.29,39.55,26.56,45.19,16,106.65,38.08,136.5,88.55,185.34,97.32,178,82.67,164.11,77.7,152.28s-1.12-27.17,4.54-25.63,9.06,18,29.27,25.24,42.26,27.87,43.77,57.63S152.27,265.9,140.23,268.46Z"/><path class="cls-2" d="M39.66,116.48c-9.26.11-9.17-27.06-7.83-50.42s6.11-28.24,13.4-24.3c4,2.17,4.65,18.86.47,40.24C42.84,96.61,42.52,116.45,39.66,116.48Z"/><path class="cls-2" d="M63.4,63.68c-3.54-3.39-7.81,3.72-12.24,20.87s-2.9,62.62,6,64.13,2-19.54,4.4-36.68S73.77,73.63,63.4,63.68Z"/></svg>