<svg width="40" height="40" viewBox="0 0 40 40" fill="none" xmlns="http://www.w3.org/2000/svg">
<rect width="40" height="40" rx="10" fill="url(#paint0_linear)"/>
<mask id="mask0" mask-type="alpha" maskUnits="userSpaceOnUse" x="0" y="0" width="40" height="40">
<rect width="40" height="40" rx="5" fill="white"/>
</mask>
<g mask="url(#mask0)">
<rect x="-12.3076" y="12.3076" width="40" height="40" rx="20" fill="url(#paint1_linear)"/>
<path d="M28.2317 21.9698C28.5097 21.3086 28.9729 20.4089 29.7762 19.4831C30.2627 18.9176 31.3443 17.7151 33.4079 16.9024C35.6656 15.9967 37.7674 16.0912 38.3103 16.1179C39.6146 16.1904 42.1154 16.6252 42.5364 17.6879C42.7376 18.1846 42.7865 18.3532 41.4081 20.1476C40.4078 21.4481 40.4946 21.589 39.6245 22.6054C38.6514 23.7364 38.1858 24.3115 37.3601 24.681C36.0531 25.2745 34.6578 25.1805 33.8757 25.125C32.4804 25.031 31.3426 24.6506 30.6601 24.378C29.862 23.5872 29.043 22.7868 28.2317 21.9698Z" fill="url(#paint2_linear)"/>
<path d="M42.7744 17.4124C42.8079 17.2793 42.5171 16.403 42.4304 16.1722C42.2704 15.8016 41.9163 15.5543 41.4553 15.3003C40.4877 14.7716 39.5225 14.4774 38.663 14.2529C38.2218 14.1354 37.5828 13.9697 36.7137 13.8257C35.1361 13.5477 33.958 13.538 33.5448 13.5394C33.0473 13.5447 32.1754 13.5268 31.1001 13.7127C30.4166 13.8237 29.8254 13.9134 29.1538 14.1783C28.0728 14.6164 27.4931 15.2207 27.2735 15.4595C26.4259 16.4079 26.2509 17.3889 26.1592 18.0685C25.867 19.8447 26.4281 21.4393 26.8656 22.4041C27.4014 22.7348 27.9453 23.048 28.4812 23.3787C28.5946 22.412 28.9876 20.2362 30.9635 18.447C31.1978 18.2361 32.946 16.7033 35.8432 16.1432C37.6261 15.7937 38.4634 15.6472 39.0664 15.7115C40.5707 15.8497 42.0861 17.0543 42.7744 17.4124Z" fill="#FFAB91"/>
<path fill-rule="evenodd" clip-rule="evenodd" d="M28.6354 23.3668C28.1822 22.9204 27.7291 22.4741 27.2722 22.0204C27.545 21.3023 28.0075 20.2941 28.8496 19.2603C29.4384 18.5319 30.574 17.1667 32.8401 16.298C33.4945 16.0434 35.5194 15.3303 38.4328 15.5795C38.4823 15.5834 38.5727 15.5803 38.6947 15.5761C39.5824 15.5456 42.1459 15.4575 42.8461 17.604C43.1599 18.5658 42.7041 19.2022 41.9665 20.1516C41.4557 20.8091 41.2019 21.1961 40.9817 21.5319C40.7252 21.9229 40.5144 22.2444 39.9964 22.8425C38.9431 24.0901 38.4047 24.7085 37.4858 25.108C36.0078 25.7391 34.4716 25.6335 33.5974 25.5653C32.0696 25.4414 30.7867 25.0305 29.9985 24.7132C29.5416 24.2596 29.0885 23.8132 28.6354 23.3668ZM33.578 17.28C31.4157 18.1076 30.3072 19.352 29.8343 19.8895C29.2558 20.5338 28.7941 21.2318 28.4493 21.9834L30.5302 24.0474C31.5224 24.4138 32.5266 24.6304 33.5345 24.7155C33.559 24.7172 33.5841 24.7189 33.6096 24.7207C34.414 24.7762 35.7308 24.8672 36.9395 24.3248C37.6911 23.9818 38.164 23.4443 39.1921 22.2517C39.6396 21.7272 39.8366 21.4396 40.0619 21.1108C40.0832 21.0798 40.1047 21.0483 40.1267 21.0163C40.3417 20.6711 40.6052 20.2816 41.1454 19.5975C41.4912 19.1548 41.5458 19.0981 41.6166 19.0246C41.6447 18.9955 41.6753 18.9636 41.7278 18.9039C41.745 18.8843 41.758 18.8707 41.7688 18.8594C41.7968 18.83 41.8096 18.8166 41.8412 18.7566C42.0156 18.4259 42.0287 17.9484 41.8508 17.6196C41.6863 17.3155 41.4966 16.985 41.4346 16.9565C40.7441 16.6055 40.2311 16.587 39.4138 16.5576C39.1719 16.5489 38.9035 16.5392 38.5958 16.5197C37.8235 16.476 35.7404 16.4524 33.578 17.28Z" fill="#FFAB91"/>
<path d="M15.0363 13.2505C15.4478 12.6631 15.9626 11.7919 16.3184 10.619C16.5379 9.90602 16.9796 8.35014 16.5684 6.17068C16.1326 3.77745 14.9332 2.04896 14.6215 1.60357C13.8655 0.538294 12.1656 -1.34674 11.0419 -1.13711C10.5143 -1.04282 10.3457 -0.994431 9.561 1.12784C8.99307 2.66712 8.82759 2.66872 8.43065 3.94646C7.99165 5.37238 7.75295 6.07279 7.87995 6.96838C8.07362 8.39071 8.89636 9.52158 9.35983 10.154C10.1826 11.2849 11.1105 12.0453 11.7047 12.4778C12.7991 12.7321 13.9127 12.999 15.0363 13.2505Z" fill="url(#paint3_linear)"/>
<path d="M11.1487 -1.48559C11.2435 -1.58494 12.1401 -1.80548 12.3816 -1.85504C12.7804 -1.91695 13.1784 -1.74898 13.6388 -1.494C14.6017 -0.956679 15.3647 -0.296458 16.0125 0.311511C16.3469 0.622335 16.8275 1.0749 17.4122 1.73377C18.4877 2.92101 19.1234 3.91292 19.3422 4.26344C19.6027 4.68729 20.0822 5.4157 20.4976 6.42488C20.7676 7.06246 21.0066 7.61055 21.14 8.32012C21.345 9.46835 21.1423 10.2809 21.0571 10.5939C20.7058 11.8164 19.9687 12.487 19.4423 12.9265C18.0946 14.1199 16.4461 14.4942 15.3966 14.6377C14.8313 14.3603 14.2765 14.0668 13.7112 13.7894C14.4691 13.1785 16.1012 11.6871 16.5633 9.06184C16.617 8.75124 16.9833 6.45521 15.9144 3.70486C15.2606 2.00965 14.9387 1.22294 14.5631 0.746832C13.645 -0.452741 11.8184 -1.09381 11.1487 -1.48559Z" fill="#FFAB91"/>
<path fill-rule="evenodd" clip-rule="evenodd" d="M13.6388 13.6529C14.2579 13.7987 14.8771 13.9445 15.5044 14.0895C15.9668 13.4762 16.5738 12.5478 17.0004 11.2845C17.3033 10.3982 17.8539 8.71005 17.3823 6.32941C17.2492 5.63998 16.7744 3.54635 15.0118 1.21321C14.9821 1.17343 14.9367 1.09537 14.8753 0.989939C14.4285 0.222536 13.1377 -1.99448 10.9479 -1.4439C9.96675 -1.19724 9.67088 -0.472539 9.26009 0.657411C8.97564 1.43981 8.78326 1.86079 8.61637 2.22597C8.42197 2.65134 8.26218 3.00099 8.03181 3.75797C7.53689 5.31391 7.3002 6.09892 7.45153 7.08944C7.70448 8.67652 8.61198 9.92047 9.13528 10.6241C10.0538 11.8511 11.0849 12.7181 11.7732 13.2163C12.4005 13.3614 13.0196 13.5071 13.6388 13.6529ZM16.1581 6.2278C16.6093 8.49869 16.1464 10.0997 15.9434 10.7862C15.7061 11.619 15.3612 12.3815 14.9087 13.0736L12.0535 12.4116C11.2151 11.767 10.4969 11.0324 9.88807 10.2247C9.87367 10.2049 9.85893 10.1848 9.8439 10.1642C9.36847 9.513 8.58998 8.44671 8.40527 7.1347C8.29535 6.31584 8.49839 5.62931 8.9602 4.12401C9.16586 3.46594 9.3043 3.14607 9.4626 2.78032C9.47756 2.74573 9.49271 2.71074 9.50811 2.67501C9.6858 2.30926 9.87506 1.87879 10.1664 1.05721C10.3568 0.529227 10.3758 0.452529 10.4002 0.353604C10.41 0.314205 10.4206 0.271281 10.4433 0.194919C10.4508 0.169743 10.4554 0.151364 10.4592 0.136172C10.4691 0.097031 10.4736 0.0790415 10.5075 0.0204642C10.6946 -0.303241 11.0917 -0.568645 11.4648 -0.593225C11.8098 -0.615956 12.1906 -0.631397 12.2477 -0.594069C12.9126 -0.196511 13.2014 0.227808 13.6617 0.903986C13.7978 1.104 13.949 1.32605 14.1293 1.57597C14.5775 2.20639 15.707 3.9569 16.1581 6.2278Z" fill="#FFAB91"/>
<mask id="mask1" mask-type="alpha" maskUnits="userSpaceOnUse" x="0" y="7" width="35" height="33">
<path fill-rule="evenodd" clip-rule="evenodd" d="M0.0639648 20.0062C0.0639648 12.0062 3.75627 11.3909 6.98704 10.9293C7.44858 10.9293 8.71012 10.6216 10.064 10.6216C14.6794 7.23694 19.4513 6.19257 25.2948 9.69856C32.2178 13.8523 32.3717 16.4678 32.6794 24.1601C36.6794 31.237 30.9871 36.4678 26.5255 38.3139C9.14089 42.7755 0.0639648 28.0062 0.0639648 20.0062Z" fill="white"/>
</mask>
<g mask="url(#mask1)">
<rect x="-0.858887" y="6.15994" width="36.8621" height="33.8462" fill="url(#paint4_linear)"/>
</g>
<path d="M21.376 9.94188C21.2434 8.2962 18.9937 8.35658 18.1968 8.77477C18.6811 8.89405 19.2612 8.91229 19.7864 9.35834C20.5506 10.0074 21.4707 11.1174 21.376 9.94188Z" fill="#7D3D2C"/>
<path d="M27.9055 14.1942C29.4102 13.5146 30.4449 15.5131 30.4641 16.4129C30.1256 16.0466 29.8292 15.5476 29.1848 15.3035C28.2471 14.9483 26.8307 14.6795 27.9055 14.1942Z" fill="#7D3D2C"/>
<path d="M19.7291 17.3049C20.7035 16.9214 20.99 15.3918 20.988 14.5604C21.0118 12.5589 19.4342 10.8451 17.7475 10.1352C17.5628 10.0505 14.9953 9.0324 12.9791 10.5032C12.2058 11.0748 11.0529 12.3347 11.3736 13.3762C11.6659 14.3407 12.9207 14.1817 15.6003 15.4428C18.1358 16.6698 18.7931 17.6741 19.7291 17.3049Z" fill="url(#paint5_radial)"/>
<path d="M20.8333 15.6576C20.6593 16.6638 19.5901 17.3233 18.5312 17.125C17.4458 16.9146 16.7115 15.9389 16.9241 14.9184C17.0982 13.9123 18.1673 13.2528 19.2263 13.4511C20.2852 13.6494 21.0074 14.6514 20.8333 15.6576Z" fill="#7D3D2C"/>
<path d="M19.1352 15.5005C19.4184 15.6299 19.7528 15.5053 19.8821 15.2221C20.0115 14.939 19.8868 14.6046 19.6037 14.4753C19.3206 14.3459 18.9862 14.4705 18.8568 14.7537C18.7275 15.0368 18.8521 15.3712 19.1352 15.5005Z" fill="white"/>
<path d="M12.9668 10.5295C14.983 9.05877 17.5505 10.0768 17.7353 10.1616C19.422 10.8714 20.9731 12.5732 20.9758 14.5868C20.9646 15.0288 20.883 15.6941 20.6431 16.2868C20.631 16.3132 21.1559 15.3082 21.1695 14.1645C21.1833 12.2543 19.8587 10.3371 17.9367 9.58319C16.449 8.99657 14.5937 9.07185 13.199 10.093C12.0187 10.9251 11.5553 12.2138 11.5795 12.1611C11.8943 11.4749 12.5235 10.8692 12.9668 10.5295Z" fill="#F37355"/>
<path d="M29.5413 23.5588C30.5158 23.1753 30.8022 21.6457 30.8003 20.8143C30.824 18.8129 29.2465 17.099 27.5598 16.3892C27.3751 16.3044 24.8076 15.2864 22.7913 16.7571C22.018 17.3287 20.8651 18.5886 21.1859 19.6301C21.4781 20.5947 22.733 20.4356 25.4125 21.6968C27.9481 22.9238 28.6054 23.928 29.5413 23.5588Z" fill="url(#paint6_radial)"/>
<mask id="mask2" mask-type="alpha" maskUnits="userSpaceOnUse" x="21" y="15" width="10" height="9">
<path fill-rule="evenodd" clip-rule="evenodd" d="M29.5413 23.2511C30.5158 22.8676 30.8022 21.338 30.8003 20.5067C30.824 18.5052 29.2465 16.7913 27.5598 16.0815C27.3751 15.9967 24.8076 14.9787 22.7913 16.4494C22.018 17.021 20.8651 18.2809 21.1859 19.3225C21.4781 20.287 22.733 20.1279 25.4125 21.3891C27.9481 22.6161 28.6054 23.6203 29.5413 23.2511Z" fill="white"/>
</mask>
<g mask="url(#mask2)">
<path d="M29.5294 21.6773C29.3553 22.6834 28.2862 23.3429 27.2272 23.1446C26.1419 22.9342 25.4076 21.9585 25.6202 20.9381C25.7943 19.9319 26.8634 19.2724 27.9223 19.4707C28.9813 19.669 29.7035 20.6711 29.5294 21.6773Z" fill="#7D3D2C"/>
<path d="M27.831 21.52C28.1142 21.6493 28.4486 21.5247 28.5779 21.2415C28.7073 20.9584 28.5826 20.624 28.2995 20.4947C28.0164 20.3653 27.682 20.49 27.5526 20.7731C27.4233 21.0562 27.5479 21.3906 27.831 21.52Z" fill="white"/>
</g>
<path d="M22.7792 16.7835C24.7955 15.3127 27.363 16.3308 27.5477 16.4155C29.2344 17.1254 30.7856 18.8271 30.7882 20.8407C30.7771 21.2828 30.6955 21.9481 30.4556 22.5407C30.4434 22.5671 30.9683 21.5622 30.9819 20.4185C30.9957 18.5083 29.6712 16.5911 27.7491 15.8371C26.2614 15.2505 24.4062 15.3258 23.0114 16.347C21.8312 17.1791 21.3678 18.4678 21.392 18.415C21.7067 17.7289 22.3359 17.1232 22.7792 16.7835Z" fill="#F37355"/>
<path d="M12.4093 31.3487C11.5099 30.7736 10.6776 30.1837 9.89761 29.5121C6.36533 26.3893 5.64654 23.2802 5.20775 21.4444C4.64773 18.8976 4.93952 16.55 6.18293 14.6957L6.28749 14.5321L6.45434 14.8116C7.89704 17.059 10.491 20.3881 14.9535 23.5874C15.4179 23.942 15.9084 24.2557 16.4399 24.5955C18.7291 26.0595 22.4016 28.0624 26.6901 29.1922C28.2188 29.5938 29.7589 29.8875 31.1877 29.9948L31.4705 30.0029L31.3659 30.1664C30.2533 31.8163 28.6058 32.9515 26.4383 33.6389C24.7661 34.1822 21.9284 35.017 17.6104 33.7532C15.3755 33.0151 13.5392 32.0136 12.4093 31.3487Z" fill="url(#paint7_radial)"/>
<path d="M9.91675 19.2145C9.94622 19.3485 9.99043 19.5496 10.0494 19.8177C10.1378 20.2198 10.3113 20.8491 10.5927 21.4899C10.8594 22.0636 11.1375 22.5294 11.3861 22.8612C11.5382 23.0736 11.9537 23.6849 12.544 24.2928C13.4239 25.2587 14.2824 25.8077 15.2635 26.4351C17.1439 27.6376 18.568 28.2027 19.1109 28.4347C19.9513 28.7417 20.4385 28.8805 20.978 28.9375C21.9638 29.1072 22.7158 29.0121 22.9577 28.994C23.8176 28.9103 24.4731 28.6959 24.9798 28.444C24.2882 28.1745 23.2581 27.8038 22.1577 27.2729C21.4514 26.9364 20.8938 26.6374 20.2136 26.26C18.8532 25.5052 17.3031 24.6867 15.694 23.6002C14.211 22.767 12.2046 21.3111 9.91675 19.2145Z" fill="url(#paint8_linear)"/>
<path d="M18.7303 33.8935C18.0011 33.7728 17.4878 33.6749 17.406 33.6226C16.2828 33.3075 15.0812 33.1151 14.0297 32.3275C13.5686 32.1478 13.1042 31.7932 12.6954 31.5318C12.2049 31.2181 11.6882 30.9453 11.2238 30.5907C11.142 30.5384 11.1011 30.5123 11.0603 30.4861L11.0194 30.46L10.9785 30.4338C11.508 29.9661 12.067 29.6324 12.8451 29.4964C13.1132 29.4375 13.4369 29.4717 13.7197 29.4798C14.0025 29.4878 14.2592 29.5368 14.5568 29.6119C15.0031 29.7245 15.4642 29.9042 15.8991 30.1247C16.1035 30.2554 16.3341 30.3453 16.5385 30.476C17.8204 31.3534 18.707 32.6691 18.7303 33.8935Z" fill="#9B0009"/>
<path d="M14.1115 32.3797C13.2417 31.9386 12.1527 31.2998 11.0195 30.4599C9.5036 29.3177 8.41934 28.2212 7.66211 27.3337C8.00862 27.1521 8.62321 26.9116 9.51256 26.962C10.0782 26.9781 10.4984 27.1316 10.6063 27.143C12.1236 27.6525 13.0362 28.9274 13.2849 29.2591C14.2679 30.6941 14.1572 31.948 14.1115 32.3797Z" fill="#9B0009"/>
<path fill-rule="evenodd" clip-rule="evenodd" d="M31.1548 29.6861L32.0442 29.7364L31.6635 30.2417C30.5508 31.8916 28.8919 33.1347 26.6835 33.7959C26.6562 33.8041 26.6287 33.8125 26.6008 33.8209C24.8781 34.3417 22.0105 35.2087 17.6808 33.9136C15.3117 33.2049 13.4084 32.2182 12.2638 31.4862C11.3645 30.9111 10.5174 30.2542 9.73732 29.5826C6.11152 26.4069 5.36075 23.2558 4.90625 21.3482C4.9026 21.3329 4.89897 21.3177 4.89535 21.3025C4.29445 18.7295 4.65325 16.3671 5.88192 14.4458L6.22177 13.9144L6.74846 14.712C8.1094 16.907 10.7296 20.1953 15.1103 23.3423C15.5746 23.6968 16.0651 24.0105 16.5964 24.3502L16.5967 24.3504C18.886 25.8144 22.4505 27.8059 26.6981 28.9095C28.2268 29.3111 29.726 29.5787 31.1548 29.6861ZM17.6741 33.5637C21.925 34.8423 24.7218 33.9813 26.394 33.438C29.1647 32.618 30.575 31.0431 31.2956 30.0064C30.2574 29.9185 28.7059 29.7327 26.7309 29.2185C20.8227 27.6813 16.207 24.4637 15.0055 23.6261C14.9718 23.6027 14.9408 23.581 14.9126 23.5614C9.90387 19.9553 7.30322 16.2763 6.33159 14.7334C5.59962 15.878 4.60482 18.0641 5.38256 21.4413C5.39136 21.4781 5.40025 21.5154 5.40926 21.5532C5.84967 23.4006 6.56979 26.4213 10.0169 29.4158C13.1926 32.1954 16.7405 33.3123 17.6741 33.5637Z" fill="url(#paint9_linear)"/>
<path d="M24.3467 25.691C22.085 28.8581 18.769 27.6495 15.8906 25.594C12.7724 23.3672 11.2199 20.6645 13.413 17.5934C14.9208 15.4819 19.0433 15.0929 22.1431 17.3065C25.243 19.5201 25.7174 23.7715 24.3467 25.691Z" fill="url(#paint10_radial)"/>
<path d="M15.0049 19.3445C15.6511 18.4396 17.0004 18.1886 17.6646 18.663C18.4396 19.2164 18.2215 20.4337 17.4793 21.2633C16.6506 22.1897 15.771 22.017 15.3282 21.7007C14.7746 21.3055 14.2869 20.3499 15.0049 19.3445Z" fill="#DB3A15"/>
<path d="M15.9233 19.6966C16.3541 19.0933 17.1821 18.9256 17.5843 19.2127C17.9308 19.4602 17.8322 20.3006 17.504 20.7421C17.0737 21.321 16.417 21.1119 16.0849 20.8747C15.7528 20.6375 15.5643 20.1993 15.9233 19.6966Z" fill="#7A2A18"/>
<path d="M22.438 24.245C22.8391 23.2013 22.3262 21.8959 21.5811 21.5722C20.7117 21.1945 19.8248 22.0332 19.5369 23.12C19.2155 24.3336 19.827 25.0052 20.3238 25.221C20.9448 25.4908 21.9924 25.4046 22.438 24.245Z" fill="#DB3A15"/>
<path d="M21.6579 23.6356C21.9252 22.9398 21.6218 22.1314 21.1707 21.9354C20.7819 21.7665 20.1419 22.3004 19.9531 22.8208C19.7055 23.5031 20.2281 23.9617 20.6007 24.1236C20.9733 24.2855 21.435 24.2154 21.6579 23.6356Z" fill="#7A2A18"/>
</g>
<path d="M33.8396 26.7828L34.9144 26.8785C37.1848 27.0788 38.6963 29.4783 38.3253 32.3921L37.2506 32.2964C37.6215 29.3826 36.11 26.9831 33.8396 26.7828Z" fill="#FE9701"/>
<path d="M32.9576 37.8327L31.8828 37.737C31.974 37.7445 32.0672 37.749 32.1626 37.7505C34.5878 37.7714 36.8646 35.327 37.2525 32.2951L38.3273 32.3908C37.9415 35.4227 35.6626 37.8671 33.2374 37.8461C33.142 37.8461 33.0488 37.8417 32.9576 37.8327Z" fill="#FE9701"/>
<path d="M37.2504 32.2965C36.8645 35.3284 34.5856 37.7728 32.1605 37.7518C29.7353 37.7309 28.0839 35.2536 28.4697 32.2217C28.8556 29.1898 31.1345 26.7484 33.5575 26.7694C35.9805 26.7903 37.6362 29.2646 37.2504 32.2965Z" fill="url(#paint11_linear)"/>
<mask id="mask3" mask-type="alpha" maskUnits="userSpaceOnUse" x="33" y="26" width="6" height="7">
<path fill-rule="evenodd" clip-rule="evenodd" d="M33.8396 26.7828L34.9144 26.8785C37.1848 27.0788 38.6963 29.4783 38.3253 32.3921L37.2506 32.2964C37.6215 29.3826 36.11 26.9831 33.8396 26.7828Z" fill="white"/>
</mask>
<g mask="url(#mask3)">
<rect width="0.291498" height="2.89655" transform="matrix(0 -1 -1 0 38.345 27.6437)" fill="#E26200"/>
<rect width="0.145749" height="2.89655" transform="matrix(0 -1 -1 0 36.6897 27.0607)" fill="#E26200"/>
<rect width="0.291498" height="2.89655" transform="matrix(0 -1 -1 0 38.345 28.8096)" fill="#E26200"/>
<rect width="0.291498" height="2.89655" transform="matrix(0 -1 -1 0 38.345 29.9756)" fill="#E26200"/>
<rect width="0.291498" height="2.89655" transform="matrix(0 -1 -1 0 38.345 31.1416)" fill="#E26200"/>
<rect width="0.291498" height="2.89655" transform="matrix(0 -1 -1 0 38.345 32.3076)" fill="#E26200"/>
</g>
<mask id="mask4" mask-type="alpha" maskUnits="userSpaceOnUse" x="31" y="32" width="8" height="6">
<path fill-rule="evenodd" clip-rule="evenodd" d="M32.9576 37.8327L31.8828 37.737C31.974 37.7445 32.0672 37.749 32.1626 37.7505C34.5878 37.7714 36.8646 35.327 37.2525 32.2951L38.3273 32.3908C37.9415 35.4227 35.6626 37.8671 33.2374 37.8461C33.142 37.8461 33.0488 37.8417 32.9576 37.8327Z" fill="white"/>
</mask>
<g mask="url(#mask4)">
</g>
<g opacity="0.2">
<mask id="mask5" mask-type="alpha" maskUnits="userSpaceOnUse" x="28" y="26" width="12" height="7">
<path fill-rule="evenodd" clip-rule="evenodd" d="M28 26.769H40V32.675L28 32.1618V26.769Z" fill="white"/>
</mask>
<g mask="url(#mask5)">
<path d="M33.8396 26.7828L34.9144 26.8785C37.1848 27.0788 38.6963 29.4783 38.3253 32.3921L37.2506 32.2964C37.6215 29.3826 36.11 26.9831 33.8396 26.7828Z" fill="white"/>
<path d="M32.9576 37.8327L31.8828 37.737C31.974 37.7445 32.0672 37.749 32.1626 37.7505C34.5878 37.7714 36.8646 35.327 37.2525 32.2951L38.3273 32.3908C37.9415 35.4227 35.6626 37.8671 33.2374 37.8461C33.142 37.8461 33.0488 37.8417 32.9576 37.8327Z" fill="white"/>
<path d="M37.2504 32.2965C36.8645 35.3284 34.5856 37.7728 32.1605 37.7518C29.7353 37.7309 28.0839 35.2536 28.4697 32.2217C28.8556 29.1898 31.1345 26.7484 33.5575 26.7694C35.9805 26.7903 37.6362 29.2646 37.2504 32.2965Z" fill="white"/>
</g>
</g>
<mask id="mask6" mask-type="alpha" maskUnits="userSpaceOnUse" x="28" y="26" width="10" height="12">
<path fill-rule="evenodd" clip-rule="evenodd" d="M37.2504 32.2965C36.8645 35.3284 34.5856 37.7728 32.1605 37.7518C29.7353 37.7309 28.0839 35.2536 28.4697 32.2217C28.8556 29.1898 31.1345 26.7484 33.5575 26.7694C35.9805 26.7903 37.6362 29.2646 37.2504 32.2965Z" fill="white"/>
</mask>
<g mask="url(#mask6)">
<rect x="31.9827" y="26.6785" width="0.409564" height="9.83489" transform="rotate(-45 31.9827 26.6785)" fill="url(#paint12_linear)"/>
<rect x="27.738" y="31.3424" width="0.409564" height="9.83489" transform="rotate(-45 27.738 31.3424)" fill="url(#paint13_linear)"/>
</g>
<path d="M36.29 32.3144C35.9678 34.8365 34.0726 36.8698 32.0566 36.8533C30.0406 36.8369 28.6648 34.7752 28.987 32.2531C29.3092 29.731 31.2044 27.6993 33.2204 27.7172C35.2386 27.7337 36.6123 29.7923 36.29 32.3144Z" fill="url(#paint14_linear)"/>
<path fill-rule="evenodd" clip-rule="evenodd" d="M34.7497 29.9755C34.7087 30.0972 34.7259 30.2368 34.7809 30.3651C34.8214 30.4467 34.883 30.5087 34.9528 30.5501C35.0192 30.6794 35.0762 30.8145 35.1233 30.9544C35.0951 30.9255 35.0624 30.9003 35.0251 30.8794C34.9228 30.8309 34.8029 30.8227 34.6874 30.8702C34.7184 30.9969 34.7892 31.0985 34.9016 31.1616C34.9973 31.2152 35.0999 31.2192 35.1922 31.1893C35.2231 31.3129 35.2468 31.4394 35.2629 31.5683C35.2424 31.5331 35.2169 31.5005 35.186 31.4718C35.0893 31.3822 34.9713 31.3603 34.8596 31.3804C34.8666 31.5054 34.9096 31.6328 35.0062 31.7225C35.0891 31.7993 35.1878 31.8264 35.2847 31.8198C35.2909 31.9497 35.2897 32.0813 35.2808 32.2141C35.2662 32.1722 35.246 32.1329 35.2208 32.0967C35.1501 31.995 35.0497 31.9328 34.9297 31.9246C34.9109 32.0617 34.9419 32.1883 35.0127 32.29C35.0731 32.3768 35.1638 32.4355 35.2563 32.4553C35.2561 32.4566 35.2559 32.4579 35.2558 32.4591C35.2383 32.5861 35.2144 32.7113 35.1844 32.8343C35.1785 32.7988 35.1696 32.7636 35.158 32.7292C35.091 32.6001 35.0045 32.525 34.9003 32.4902C34.8594 32.612 34.8645 32.7507 34.9075 32.8782C34.9534 32.9852 35.0212 33.0552 35.1099 33.0961C35.0716 33.214 35.0274 33.3293 34.9775 33.4416C34.9775 33.4069 34.9736 33.3725 34.9654 33.3388C34.9362 33.1984 34.8535 33.0959 34.7651 33.0345C34.7001 33.1546 34.6693 33.2909 34.7003 33.4175C34.7248 33.5358 34.7789 33.6266 34.8554 33.6895C34.7899 33.81 34.7175 33.9264 34.6384 34.0378C34.6494 33.9925 34.6559 33.9458 34.6582 33.8988C34.6651 33.7609 34.6101 33.6327 34.5236 33.5576C34.4365 33.6623 34.3937 33.7978 34.3868 33.9357C34.3912 34.0528 34.4225 34.162 34.4843 34.2383C34.4123 34.3249 34.336 34.4079 34.2553 34.4868C34.264 34.4587 34.2706 34.4292 34.2748 34.3984C34.2955 34.2476 34.2765 34.1217 34.2058 34.0201C34.1105 34.0966 34.0336 34.2159 34.0128 34.3666C33.9882 34.4754 34.0018 34.5867 34.0442 34.6789C33.9553 34.754 33.8634 34.8235 33.7688 34.8871C33.7848 34.8585 33.7983 34.8278 33.8086 34.7954C33.8634 34.6608 33.8583 34.5221 33.8134 34.4083C33.708 34.4703 33.609 34.5742 33.5661 34.7097C33.5221 34.8177 33.5167 34.9284 33.5396 35.0268C33.3652 35.1222 33.1832 35.198 32.9949 35.2521L33.012 35.3916C33.2093 35.3369 33.4028 35.257 33.5887 35.1553C33.6365 35.2444 33.7096 35.3191 33.8053 35.3485C33.9196 35.3978 34.0433 35.3785 34.1487 35.3165C34.1038 35.2028 34.021 35.1003 33.9049 35.0647C33.8661 35.048 33.8263 35.0391 33.7864 35.0372C33.8997 34.9636 34.0094 34.882 34.1146 34.7931C34.1812 34.8592 34.2638 34.9122 34.3592 34.9298C34.4773 34.9517 34.6048 34.9051 34.7019 34.8149C34.6431 34.714 34.5446 34.6381 34.4127 34.6291C34.3738 34.6219 34.3339 34.6221 34.2944 34.6289C34.3944 34.5297 34.4883 34.4252 34.5759 34.3159C34.655 34.3769 34.7537 34.4015 34.8563 34.3968C34.98 34.3776 35.0974 34.3164 35.1724 34.2108C35.0878 34.122 34.9735 34.0727 34.8498 34.0919C34.803 34.0992 34.7571 34.1125 34.714 34.132C34.797 34.0139 34.8731 33.891 34.9419 33.7638C35.0291 33.8025 35.1258 33.8103 35.2207 33.7713C35.3482 33.7246 35.4454 33.6344 35.5103 33.5143C35.4219 33.4529 35.3039 33.431 35.1764 33.4777C35.131 33.4943 35.0894 33.5164 35.0518 33.5435C35.1132 33.4096 35.1669 33.2717 35.2126 33.1301C35.3028 33.1427 35.4028 33.1207 35.4987 33.0707C35.6179 32.9958 35.693 32.8903 35.7358 32.7548C35.6316 32.7201 35.5079 32.7393 35.3906 32.8005C35.3491 32.8265 35.3129 32.8563 35.2816 32.8898C35.3165 32.7514 35.344 32.6102 35.3637 32.4665C35.3639 32.465 35.3641 32.4635 35.3643 32.4621C35.4624 32.4535 35.5558 32.4081 35.6366 32.3331C35.7337 32.2429 35.7987 32.1228 35.8175 31.9857C35.7096 31.9783 35.5821 32.025 35.4849 32.1152C35.4481 32.1495 35.4155 32.19 35.3885 32.2339C35.3995 32.0875 35.4018 31.942 35.3955 31.7983C35.4871 31.769 35.5782 31.7106 35.6504 31.6143C35.7394 31.4958 35.7702 31.3596 35.7632 31.2345C35.6414 31.2401 35.5341 31.3158 35.4452 31.4342C35.4164 31.4726 35.3937 31.5129 35.3763 31.554C35.3606 31.4155 35.3366 31.2793 35.3045 31.1462C35.3966 31.0949 35.4744 31.0131 35.5307 30.9004C35.5975 30.7666 35.6044 30.6287 35.5715 30.5158C35.444 30.5624 35.3468 30.6526 35.292 30.7873C35.2688 30.8337 35.2529 30.8806 35.2433 30.9268C35.1942 30.7727 35.1337 30.6239 35.0618 30.4819C35.0684 30.3895 35.0485 30.2923 35.0092 30.2008C34.9524 30.0862 34.8539 30.0103 34.7497 29.9755Z" fill="url(#paint15_linear)"/>
<path fill-rule="evenodd" clip-rule="evenodd" d="M30.9847 29.718C30.9917 29.8431 30.9369 29.9777 30.848 30.0961C30.786 30.1707 30.7086 30.2232 30.6289 30.2545C30.5283 30.3726 30.4354 30.4978 30.3508 30.6291C30.3865 30.6043 30.4256 30.5839 30.4682 30.5683C30.5817 30.5346 30.7017 30.5428 30.8021 30.605C30.7371 30.7251 30.64 30.8153 30.5125 30.8619C30.4038 30.9017 30.302 30.8917 30.2195 30.8498C30.1554 30.967 30.0977 31.0882 30.0467 31.2127C30.0765 31.1807 30.1105 31.152 30.149 31.1279C30.2682 31.053 30.39 31.0475 30.4942 31.0822C30.4533 31.204 30.3763 31.3233 30.2571 31.3981C30.1547 31.4624 30.0504 31.4756 29.957 31.456C29.9155 31.5827 29.8808 31.7122 29.8533 31.8438C29.8791 31.8046 29.9097 31.7686 29.9444 31.7365C30.0415 31.6462 30.157 31.5988 30.2769 31.607C30.2581 31.744 30.1931 31.8641 30.096 31.9544C30.013 32.0314 29.9079 32.0767 29.8117 32.0837C29.8116 32.0848 29.8114 32.086 29.8113 32.0871C29.7938 32.2142 29.7831 32.3404 29.7791 32.4652C29.7946 32.4311 29.8129 32.3977 29.8337 32.3655C29.9346 32.2478 30.04 32.1858 30.1517 32.1658C30.1587 32.2908 30.1159 32.4262 30.0389 32.5455C29.9647 32.6444 29.879 32.7039 29.7808 32.7321C29.7863 32.853 29.7983 32.9722 29.8167 33.0892C29.8262 33.0552 29.8394 33.0218 29.8567 32.9897C29.9235 32.8559 30.0327 32.7665 30.1362 32.7182C30.1672 32.8449 30.1603 32.9828 30.0954 33.1029C30.0391 33.2156 29.9612 33.2974 29.869 33.3488C29.9004 33.476 29.9398 33.6 29.9871 33.7201C29.9886 33.6741 29.995 33.6274 30.0055 33.5809C30.0363 33.4446 30.1253 33.3262 30.2306 33.2642C30.2875 33.3788 30.2927 33.5175 30.2618 33.6537C30.2256 33.7682 30.1651 33.871 30.0836 33.9376C30.1307 34.0324 30.1831 34.1243 30.2408 34.2128C30.24 34.184 30.2416 34.1542 30.2458 34.1233C30.2665 33.9725 30.3195 33.8516 30.4166 33.7614C30.4893 33.8494 30.5323 33.9768 30.5116 34.1276C30.5061 34.2376 30.4624 34.3451 30.3957 34.4298C30.4625 34.5154 30.5337 34.596 30.6091 34.6712C30.6012 34.6409 30.5964 34.6091 30.5951 34.5759C30.578 34.4364 30.6208 34.301 30.6959 34.1954C30.7824 34.2705 30.8513 34.3859 30.8564 34.5246C30.8702 34.6366 30.8453 34.7459 30.7962 34.8393C30.9412 34.9564 31.0991 35.0554 31.2691 35.1339L31.2143 35.2685C31.0357 35.1882 30.8676 35.0836 30.713 34.9588C30.6417 35.0399 30.5496 35.1035 30.4475 35.1193C30.3219 35.1523 30.2058 35.1167 30.1192 35.0416C30.1943 34.936 30.3034 34.8466 30.4271 34.8274C30.4699 34.8162 30.5116 34.8129 30.5513 34.8164C30.4601 34.7289 30.3746 34.6338 30.2955 34.5323C30.2121 34.5882 30.1165 34.629 30.018 34.6335C29.8962 34.639 29.7838 34.576 29.7131 34.4743C29.7982 34.3833 29.9156 34.3221 30.0475 34.3311C30.0877 34.3293 30.1269 34.3349 30.1638 34.3469C30.0926 34.236 30.0288 34.1207 29.9726 34.0014C29.8784 34.0505 29.7749 34.0612 29.6755 34.0428C29.5593 34.0072 29.4608 33.9313 29.4159 33.8175C29.5232 33.7418 29.6488 33.7089 29.765 33.7445C29.8088 33.7579 29.8502 33.7771 29.887 33.8019C29.8378 33.6749 29.7967 33.5442 29.7638 33.4101C29.6678 33.4362 29.5708 33.4308 29.4883 33.3797C29.3759 33.3167 29.3051 33.215 29.2741 33.0884C29.3776 33.0401 29.4994 33.0346 29.6118 33.0976C29.6517 33.12 29.6864 33.1472 29.7159 33.1788C29.6922 33.0392 29.6771 32.8967 29.6708 32.7517C29.5789 32.7518 29.4868 32.7167 29.4065 32.6548C29.3098 32.5652 29.2649 32.4514 29.2598 32.3127C29.3715 32.2926 29.4877 32.3282 29.5862 32.4041C29.6197 32.4352 29.647 32.4692 29.6686 32.5062C29.672 32.3657 29.6835 32.2234 29.7033 32.0798C29.7035 32.0784 29.7037 32.0771 29.7039 32.0758C29.61 32.0541 29.5307 31.9969 29.472 31.9125C29.4012 31.8108 29.3702 31.6841 29.3891 31.547C29.497 31.5544 29.6094 31.6174 29.6802 31.7191C29.7069 31.7576 29.7278 31.8017 29.7424 31.8483C29.7715 31.7031 29.8089 31.5599 29.8542 31.4197C29.7724 31.3786 29.6989 31.3089 29.6542 31.2047C29.5992 31.0764 29.6061 30.9385 29.647 30.8167C29.7651 30.8386 29.8497 30.9274 29.9047 31.0557C29.9225 31.0972 29.9338 31.1397 29.9396 31.1824C29.9928 31.0486 30.0534 30.9182 30.1212 30.792C30.0448 30.7292 29.9907 30.6384 29.9662 30.5202C29.9371 30.3799 29.9679 30.2436 30.031 30.1372C30.1434 30.2002 30.2141 30.3019 30.2312 30.4415C30.2414 30.4902 30.2442 30.5383 30.2411 30.585C30.3312 30.4404 30.4312 30.3025 30.5404 30.1729C30.5591 30.0813 30.6051 29.9885 30.6686 29.904C30.7556 29.7993 30.873 29.7381 30.9847 29.718Z" fill="url(#paint16_linear)"/>
<path fill-rule="evenodd" clip-rule="evenodd" d="M32.8248 31.5256C32.8798 31.1254 33.2039 30.8243 33.5541 30.8482C33.9043 30.8721 34.1404 31.2114 34.0853 31.6116C34.0303 32.0118 33.7061 32.3129 33.356 32.289C33.0058 32.2651 32.7697 31.9258 32.8248 31.5256ZM33.1849 31.5502C33.1613 31.7217 33.2625 31.8671 33.4126 31.8773C33.5626 31.8876 33.7016 31.7586 33.7252 31.587C33.7487 31.4155 33.6476 31.2701 33.4975 31.2599C33.3474 31.2496 33.2085 31.3786 33.1849 31.5502ZM31.5921 31.2347L31.4647 32.1609L31.0445 32.1322L31.1719 31.206C31.2096 30.9316 31.4612 30.7179 31.7213 30.7357C31.8313 30.7432 31.9266 30.7843 31.9972 30.8584C32.0867 30.7952 32.1915 30.7677 32.3015 30.7753C32.5716 30.7937 32.7503 31.0367 32.7125 31.3112L32.5852 32.2374L32.205 32.2114L32.3324 31.2852C32.3402 31.228 32.3065 31.1796 32.2565 31.1762C32.2065 31.1727 32.1602 31.2158 32.1523 31.2729L32.0249 32.1991L31.6448 32.1732L31.7721 31.247C31.78 31.1898 31.7463 31.1413 31.6962 31.1379C31.6462 31.1345 31.5999 31.1775 31.5921 31.2347ZM33.3256 32.5061C32.9755 32.4822 32.6513 32.7833 32.5963 33.1835C32.5412 33.5837 32.7773 33.923 33.1275 33.9469C33.4776 33.9708 33.8018 33.6697 33.8568 33.2695C33.9119 32.8693 33.6758 32.53 33.3256 32.5061ZM33.1825 33.5467C33.0325 33.5364 32.9313 33.391 32.9549 33.2195C32.9785 33.048 33.1174 32.919 33.2674 32.9292C33.4175 32.9394 33.5187 33.0849 33.4951 33.2564C33.4731 33.4165 33.3326 33.5569 33.1825 33.5467ZM31.3639 32.8917L31.2366 33.8179L30.8164 33.7892L30.9438 32.863C30.9815 32.5886 31.2331 32.3749 31.4932 32.3927C31.6032 32.4002 31.6985 32.4413 31.7691 32.5154C31.8586 32.4522 31.9634 32.4247 32.0734 32.4323C32.3435 32.4507 32.5222 32.6937 32.4844 32.9682L32.3571 33.8944L31.9769 33.8684L32.1043 32.9422C32.1121 32.885 32.0784 32.8366 32.0284 32.8332C31.9784 32.8297 31.9321 32.8728 31.9242 32.9299L31.7968 33.8561L31.4167 33.8302L31.544 32.904C31.5519 32.8468 31.5182 32.7983 31.4681 32.7949C31.4181 32.7915 31.3718 32.8345 31.3639 32.8917Z" fill="url(#paint17_linear)"/>
<defs>
<linearGradient id="paint0_linear" x1="55.2308" y1="12.7692" x2="16.7692" y2="-17.6923" gradientUnits="userSpaceOnUse">
<stop stop-color="#57CEFF"/>
<stop offset="1" stop-color="#1A6CFE"/>
</linearGradient>
<linearGradient id="paint1_linear" x1="-11.7503" y1="13.5485" x2="-11.7503" y2="52.4322" gradientUnits="userSpaceOnUse">
<stop stop-color="#FFCDAE"/>
<stop offset="0.8059" stop-color="#FF9D7C"/>
<stop offset="0.862" stop-color="#FD9978"/>
<stop offset="0.9193" stop-color="#F68D6D"/>
<stop offset="0.9769" stop-color="#EB785B"/>
<stop offset="1" stop-color="#E56E52"/>
</linearGradient>
<linearGradient id="paint2_linear" x1="43.0258" y1="16.4257" x2="27.7912" y2="19.3712" gradientUnits="userSpaceOnUse">
<stop stop-color="#FF8866"/>
<stop offset="0.6027" stop-color="#F76F4A"/>
<stop offset="1" stop-color="#F3633D"/>
</linearGradient>
<linearGradient id="paint3_linear" x1="2.93516" y1="5.48502" x2="14.2805" y2="13.6828" gradientUnits="userSpaceOnUse">
<stop stop-color="#FF8866"/>
<stop offset="0.6027" stop-color="#F76F4A"/>
<stop offset="1" stop-color="#F3633D"/>
</linearGradient>
<linearGradient id="paint4_linear" x1="14.5501" y1="-1.79882" x2="-4.80433" y2="26.8572" gradientUnits="userSpaceOnUse">
<stop stop-color="#FFCDAE"/>
<stop offset="0.8059" stop-color="#FF9D7C"/>
<stop offset="0.862" stop-color="#FD9978"/>
<stop offset="0.9193" stop-color="#F68D6D"/>
<stop offset="0.9769" stop-color="#EB785B"/>
<stop offset="1" stop-color="#E56E52"/>
</linearGradient>
<radialGradient id="paint5_radial" cx="0" cy="0" r="1" gradientUnits="userSpaceOnUse" gradientTransform="translate(17.4584 10.2632) rotate(24.6421) scale(7.88697 6.89652)">
<stop offset="0.0204082" stop-color="white"/>
<stop offset="0.2111" stop-color="#FFFCFB"/>
<stop offset="0.4022" stop-color="#FFF3EF"/>
<stop offset="0.5936" stop-color="#FFE3DB"/>
<stop offset="0.784" stop-color="#FFCEBF"/>
<stop offset="0.852" stop-color="#FFC5B3"/>
<stop offset="0.9898" stop-color="#FFAB91"/>
</radialGradient>
<radialGradient id="paint6_radial" cx="0" cy="0" r="1" gradientUnits="userSpaceOnUse" gradientTransform="translate(27.2706 16.5171) rotate(24.6421) scale(7.88697 6.89649)">
<stop offset="0.0204082" stop-color="white"/>
<stop offset="0.2111" stop-color="#FFFCFB"/>
<stop offset="0.4022" stop-color="#FFF3EF"/>
<stop offset="0.5936" stop-color="#FFE3DB"/>
<stop offset="0.784" stop-color="#FFCEBF"/>
<stop offset="0.852" stop-color="#FFC5B3"/>
<stop offset="0.9898" stop-color="#FFAB91"/>
</radialGradient>
<radialGradient id="paint7_radial" cx="0" cy="0" r="1" gradientUnits="userSpaceOnUse" gradientTransform="translate(11.7498 31.1937) rotate(12.6397) scale(17.1479 13.33)">
<stop stop-color="#E35438"/>
<stop offset="0.275117" stop-color="#490107"/>
<stop offset="0.6196"/>
<stop offset="0.9634"/>
</radialGradient>
<linearGradient id="paint8_linear" x1="19.7865" y1="29.0011" x2="21.6343" y2="22.2059" gradientUnits="userSpaceOnUse">
<stop stop-color="white"/>
<stop offset="0.1228" stop-color="#FFFAF8"/>
<stop offset="0.297" stop-color="#FFECE6"/>
<stop offset="0.5019" stop-color="#FFD5C7"/>
<stop offset="0.7301" stop-color="#FFB49D"/>
<stop offset="0.9749" stop-color="#FF8C67"/>
<stop offset="1" stop-color="#FF8761"/>
</linearGradient>
<linearGradient id="paint9_linear" x1="20.0824" y1="27.0273" x2="21.3276" y2="22.2103" gradientUnits="userSpaceOnUse">
<stop stop-color="#FFC5B3"/>
<stop offset="0.3546" stop-color="#FFAB91"/>
<stop offset="0.7737" stop-color="#FF916E"/>
<stop offset="1" stop-color="#FF8761"/>
</linearGradient>
<radialGradient id="paint10_radial" cx="0" cy="0" r="1" gradientUnits="userSpaceOnUse" gradientTransform="translate(18.8113 21.7382) rotate(125.531) scale(6.36832 6.53244)">
<stop stop-color="#FF8C74"/>
<stop offset="1" stop-color="#FF6344"/>
</radialGradient>
<linearGradient id="paint11_linear" x1="27.3203" y1="29.4464" x2="33.2761" y2="38.5489" gradientUnits="userSpaceOnUse">
<stop stop-color="#FFD700"/>
<stop offset="1" stop-color="#FE9A01"/>
</linearGradient>
<linearGradient id="paint12_linear" x1="31.9827" y1="26.6785" x2="31.9827" y2="36.5134" gradientUnits="userSpaceOnUse">
<stop stop-color="#FEFDEA"/>
<stop offset="1" stop-color="#FEDD85"/>
</linearGradient>
<linearGradient id="paint13_linear" x1="27.738" y1="31.3424" x2="27.738" y2="41.1773" gradientUnits="userSpaceOnUse">
<stop stop-color="#FEE399"/>
<stop offset="1" stop-color="#FFC63D"/>
</linearGradient>
<linearGradient id="paint14_linear" x1="28.9402" y1="27.7171" x2="28.9402" y2="36.8534" gradientUnits="userSpaceOnUse">
<stop stop-color="#FFE26D"/>
<stop offset="1" stop-color="#FEB81E"/>
</linearGradient>
<linearGradient id="paint15_linear" x1="33.4821" y1="29.6263" x2="32.1576" y2="34.897" gradientUnits="userSpaceOnUse">
<stop stop-color="#F09301"/>
<stop offset="1" stop-color="#EA7C01"/>
</linearGradient>
<linearGradient id="paint16_linear" x1="29.8196" y1="29.1874" x2="27.4828" y2="33.6755" gradientUnits="userSpaceOnUse">
<stop stop-color="#F09301"/>
<stop offset="1" stop-color="#EA7C01"/>
</linearGradient>
<linearGradient id="paint17_linear" x1="31.1261" y1="30.6866" x2="30.9217" y2="33.8006" gradientUnits="userSpaceOnUse">
<stop stop-color="#F19501"/>
<stop offset="1" stop-color="#EA7A01"/>
</linearGradient>
</defs>
</svg>
