<svg xmlns="http://www.w3.org/2000/svg" xmlns:xlink="http://www.w3.org/1999/xlink" width="86" height="20" viewBox="0 0 86 20">
    <defs>
        <linearGradient id="m4clk4ys9b" x1="92.684%" x2="10.71%" y1="48.71%" y2="51.867%">
            <stop offset="0%" stop-color="#B5B5B5"/>
            <stop offset="100%" stop-color="#BBB7B7"/>
        </linearGradient>
        <linearGradient id="969rwjh4td" x1="92.684%" x2="10.71%" y1="48.906%" y2="51.583%">
            <stop offset="0%" stop-color="#634040"/>
            <stop offset="100%" stop-color="#D8D8D8"/>
        </linearGradient>
        <path id="h735um7t9a" d="M3.236 0h79.528C84.55 0 86 1.79 86 4v12c0 2.21-1.449 4-3.236 4H3.236C1.45 20 0 18.21 0 16V4c0-2.21 1.449-4 3.236-4z"/>
    </defs>
    <g fill="none" fill-rule="evenodd">
        <g>
            <g>
                <g>
                    <mask id="g43ggjrl6c" fill="#fff">
                        <use xlink:href="#h735um7t9a"/>
                    </mask>
                    <use fill="#0091FF" xlink:href="#h735um7t9a"/>
                    <path fill="url(#m4clk4ys9b)" d="M19 10.533c3.692-.8 7.921-2.755 12.688-5.866C36.455 1.556 44.375 0 55.446 0H107c-5.013 8.024-15.028 11.358-30.043 10-22.524-2.037-29.452 1.164-38.62 5.43C32.223 18.275 25.778 17.265 19 12.4v-1.867z" mask="url(#g43ggjrl6c)" opacity=".41" style="mix-blend-mode:overlay"/>
                    <path fill="url(#969rwjh4td)" d="M19.931 11.186C33.768 15.452 41.47 1.624 56.33 5.357 66.236 7.847 84.126 7.394 110 4v6.533C103.183 17.2 94.223 20.356 83.119 20c-16.657-.533-26-5.2-39.085-2-8.722 2.133-16.668 1.422-23.836-2.133-.178-1.343-.267-2.904-.267-4.681z" mask="url(#g43ggjrl6c)" opacity=".41" style="mix-blend-mode:overlay"/>
                </g>
                <path fill="#FFF" fill-rule="nonzero" d="M19.567 16.333c-.076 0-.151-.017-.221-.051l-4.067-2c-.17-.084-.279-.258-.279-.449v-2.666c0-.19.108-.365.28-.449l4.066-2c.155-.076.338-.067.485.024.147.091.236.252.236.425v6.666c0 .173-.09.333-.236.425-.08.05-.172.075-.264.075z"/>
                <path fill="#FFF" fill-rule="nonzero" d="M14.167 8C15.177 8 16 8.822 16 9.833v5.334c0 1.01-.822 1.833-1.833 1.833H4.833C3.823 17 3 16.178 3 15.167V9.833C3 8.823 3.822 8 4.833 8h9.334zm-6.584 6H5.25c-.276 0-.5.224-.5.5s.224.5.5.5h2.333c.276 0 .5-.224.5-.5s-.224-.5-.5-.5zm6.167-4h-3.667c-.276 0-.5.224-.5.5V13c0 .276.224.5.5.5h3.667c.276 0 .5-.224.5-.5v-2.5c0-.276-.224-.5-.5-.5zm-6.167 2H5.25c-.276 0-.5.224-.5.5s.224.5.5.5h2.333c.276 0 .5-.224.5-.5s-.224-.5-.5-.5z"/>
                <circle cx="12.5" cy="5.5" r="3" fill="#FFF" fill-rule="nonzero"/>
                <path fill="#BCEAF9" fill-rule="nonzero" d="M12.5 9C10.57 9 9 7.43 9 5.5S10.57 2 12.5 2 16 3.57 16 5.5 14.43 9 12.5 9zm0-6C11.121 3 10 4.122 10 5.5S11.121 8 12.5 8 15 6.878 15 5.5 13.879 3 12.5 3z"/>
                <circle cx="12.5" cy="5.5" r="1" fill="#BCEAF9" fill-rule="nonzero"/>
                <path fill="#2681FF" fill-rule="nonzero" d="M12.5 7c-.827 0-1.5-.673-1.5-1.5S11.673 4 12.5 4s1.5.673 1.5 1.5S13.327 7 12.5 7zm0-2c-.276 0-.5.224-.5.5s.224.5.5.5.5-.224.5-.5-.224-.5-.5-.5z"/>
                <circle cx="6.5" cy="5.5" r="3" fill="#FFF" fill-rule="nonzero"/>
                <path fill="#BCEAF9" fill-rule="nonzero" d="M6.5 9C4.57 9 3 7.43 3 5.5S4.57 2 6.5 2 10 3.57 10 5.5 8.43 9 6.5 9zm0-6C5.122 3 4 4.122 4 5.5S5.122 8 6.5 8 9 6.878 9 5.5 7.878 3 6.5 3z"/>
                <circle cx="6.5" cy="5.5" r="1" fill="#BCEAF9" fill-rule="nonzero"/>
                <path fill="#2681FF" fill-rule="nonzero" d="M6.5 7C5.673 7 5 6.327 5 5.5S5.673 4 6.5 4 8 4.673 8 5.5 7.327 7 6.5 7zm0-2c-.276 0-.5.224-.5.5s.224.5.5.5.5-.224.5-.5-.224-.5-.5-.5z"/>
                <path fill="#FFF" fill-rule="nonzero" d="M28.041 15l1.505-1.45v-3.04l-1.574-1.451-1.673-.14V6.883h.948v1.339h2.3V6.45L27.93 5h-2.425L24 6.45v3l1.603 1.45 1.644.125v2.092h-.948v-1.325H24v1.758L25.491 15h2.55zm4.64 0v-4.868h.029L34.2 15h1.91V5h-2.16v4.812h-.028L32.445 5h-1.923v10h2.16zm8.808 0v-1.883h-1.993V10.65h1.63V8.766h-1.63V6.883h1.937V5h-4.236v10h4.292zm2.244 0l.195-1.841h1.338L45.46 15h2.257l-1.49-10h-3.331l-1.408 10h2.244zm1.366-3.724h-1.004l.349-4.156h.223l.432 4.156zM50.408 15v-4.268h.028L52.108 15h2.495l-2.3-5.328L54.296 5h-2.355l-1.505 4.268h-.028V5h-2.3v10h2.3zm8.57 0l1.505-1.45v-3.04L58.91 9.058l-1.673-.14V6.883h.948v1.339h2.3V6.45L58.866 5h-2.425l-1.505 1.45v3l1.603 1.45 1.644.125v2.092h-.948v-1.325h-2.299v1.758L56.428 15h2.55zm4.794 0v-4.059h.962V15h2.3V5h-2.3v4.059h-.962V5h-2.3v10h2.3zm8.473 0l1.477-1.45v-7.1L72.148 5H69.68l-1.52 1.45v7.1l1.52 1.45h2.564zm-.822-1.883h-.962V6.883h.962v6.234zM77.443 15l.488-4.282h.223L78.642 15H80.3L82 5h-2.174l-.71 5.035h-.029L78.517 5h-.949l-.57 5.035h-.029L76.26 5h-2.174l1.7 10h1.658z"/>
            </g>
        </g>
    </g>
</svg>