<svg width="45" height="45" viewBox="0 0 45 45" fill="none" xmlns="http://www.w3.org/2000/svg">
<path fill-rule="evenodd" clip-rule="evenodd" d="M19.7929 31.4766C18.2261 31.4766 16.9531 32.7496 16.9531 34.3164C16.9531 35.9811 18.2261 37.2541 19.7929 37.2541C21.4576 37.2541 22.7306 35.9811 22.7306 34.3164C22.7306 32.7496 21.4576 31.4766 19.7929 31.4766ZM19.7929 35.5894C19.1074 35.5894 18.5199 35.0998 18.5199 34.3164C18.5199 33.6309 19.1074 33.0434 19.7929 33.0434C20.5763 33.0434 21.1638 33.6309 21.1638 34.3164C21.1638 35.0998 20.5763 35.5894 19.7929 35.5894Z" fill="#EE4FAF"/>
<path fill-rule="evenodd" clip-rule="evenodd" d="M30.0748 31.4766C28.4101 31.4766 27.1371 32.7496 27.1371 34.3164C27.1371 35.9811 28.4101 37.2541 30.0748 37.2541C31.6415 37.2541 32.9145 35.9811 32.9145 34.3164C32.9145 32.7496 31.6415 31.4766 30.0748 31.4766ZM30.0748 35.5894C29.2914 35.5894 28.7039 35.0998 28.7039 34.3164C28.7039 33.6309 29.2914 33.0434 30.0748 33.0434C30.7602 33.0434 31.3478 33.6309 31.3478 34.3164C31.3478 35.0998 30.7602 35.5894 30.0748 35.5894Z" fill="#EE4FAF"/>
<path fill-rule="evenodd" clip-rule="evenodd" d="M30.7602 16.4944H19.1074C18.0303 16.4944 18.0303 18.0612 19.1074 18.0612H30.7602C31.8374 18.0612 31.8374 16.4944 30.7602 16.4944Z" fill="#EE4FAF"/>
<path fill-rule="evenodd" clip-rule="evenodd" d="M30.0748 20.7051H19.7928C18.7157 20.7051 18.7157 22.2719 19.7928 22.2719H30.0748C31.1519 22.2719 31.1519 20.7051 30.0748 20.7051Z" fill="#EE4FAF"/>
<path fill-rule="evenodd" clip-rule="evenodd" d="M37.419 12.2837H12.1549L11.6653 9.73775C11.4695 9.24814 11.1757 8.85644 10.6861 8.6606L7.16086 7.09383C6.18163 6.60422 5.49617 8.17098 6.4754 8.56268L10.0006 10.1294L13.9175 29.1265C14.1134 29.9099 14.7988 30.4974 15.5822 30.4974H34.9709C36.0481 30.4974 36.0481 28.8327 34.9709 28.8327H15.5822L15.0926 26.4826H35.1668C35.8523 26.4826 36.5377 25.9929 36.7336 25.2096L38.9858 14.2422C39.1816 13.165 38.3983 12.2837 37.419 12.2837ZM35.1668 24.9158H14.7009L12.4487 13.8505H37.419L35.1668 24.9158Z" fill="#700044"/>
</svg>
