<svg width="45" height="45" viewBox="0 0 45 45" fill="none" xmlns="http://www.w3.org/2000/svg">
<path d="M22.897 35.5648C23.044 35.7132 23.1523 35.8953 23.2123 36.0953C23.2724 36.2953 23.2824 36.507 23.2414 36.7117C23.2005 36.9165 23.1098 37.108 22.9775 37.2695C22.8451 37.431 22.6751 37.5575 22.4824 37.6379C22.1729 37.7625 21.8273 37.7625 21.5178 37.6379C21.3244 37.5583 21.1536 37.4321 21.0207 37.2707C20.8877 37.1092 20.7967 36.9174 20.7557 36.7123C20.7147 36.5072 20.7249 36.2952 20.7855 36.095C20.8462 35.8948 20.9553 35.7127 21.1032 35.5648C21.3461 35.3367 21.6668 35.2098 22.0001 35.2098C22.3333 35.2098 22.6541 35.3367 22.897 35.5648ZM33.0002 8.53848V37.3079C32.9994 37.9809 32.7317 38.6262 32.2558 39.1021C31.7799 39.578 31.1347 39.8457 30.4617 39.8464H13.5385C12.8655 39.8457 12.2202 39.578 11.7443 39.1021C11.2684 38.6262 11.0007 37.9809 11 37.3079V8.53848C11.0007 7.86546 11.2684 7.22022 11.7443 6.74432C12.2202 6.26842 12.8655 6.00074 13.5385 6H30.4617C31.1347 6.00074 31.7799 6.26842 32.2558 6.74432C32.7317 7.22022 32.9994 7.86546 33.0002 8.53848ZM12.6923 33.0771H31.3078V12.7693H12.6923V33.0771ZM12.6923 8.53848V11.077H31.3078V8.53848C31.3076 8.31413 31.2184 8.09902 31.0598 7.94038C30.9011 7.78174 30.686 7.69252 30.4617 7.69232H13.5385C13.3141 7.69252 13.099 7.78174 12.9404 7.94038C12.7817 8.09902 12.6925 8.31413 12.6923 8.53848ZM31.3078 37.3079V34.7694H12.6923V37.3079C12.6925 37.5323 12.7817 37.7474 12.9404 37.906C13.099 38.0647 13.3141 38.1539 13.5385 38.1541H30.4617C30.686 38.1539 30.9011 38.0647 31.0598 37.906C31.2184 37.7474 31.3076 37.5323 31.3078 37.3079Z" fill="#700044"/>
<path d="M25.3847 10.2308H21.1539C20.9295 10.2308 20.7143 10.1417 20.5556 9.98297C20.3969 9.82428 20.3077 9.60906 20.3077 9.38464C20.3077 9.16023 20.3969 8.945 20.5556 8.78632C20.7143 8.62763 20.9295 8.53848 21.1539 8.53848H25.3847C25.6091 8.53848 25.8243 8.62763 25.983 8.78632C26.1417 8.945 26.2309 9.16023 26.2309 9.38464C26.2309 9.60906 26.1417 9.82428 25.983 9.98297C25.8243 10.1417 25.6091 10.2308 25.3847 10.2308Z" fill="#EE4FAF"/>
<path d="M18.6154 10.2308H17.7693C17.5448 10.2308 17.3296 10.1417 17.1709 9.98297C17.0122 9.82428 16.9231 9.60906 16.9231 9.38464C16.9231 9.16023 17.0122 8.945 17.1709 8.78632C17.3296 8.62763 17.5448 8.53848 17.7693 8.53848H18.6154C18.8398 8.53848 19.0551 8.62763 19.2137 8.78632C19.3724 8.945 19.4616 9.16023 19.4616 9.38464C19.4616 9.60906 19.3724 9.82428 19.2137 9.98297C19.0551 10.1417 18.8398 10.2308 18.6154 10.2308Z" fill="#EE4FAF"/>
<circle cx="22" cy="36.5" r="1.5" fill="#EE4FAF"/>
</svg>
