<svg width="45" height="45" viewBox="0 0 45 45" fill="none" xmlns="http://www.w3.org/2000/svg">
<path d="M35.3047 6H9.86719C9.6372 6 9.41662 6.09136 9.25399 6.25399C9.09136 6.41662 9 6.6372 9 6.86719V35.7734C9.00101 35.8946 9.02723 36.0142 9.07699 36.1247C9.12676 36.2352 9.19898 36.3341 9.28906 36.4152L11.8328 38.7277C11.9912 38.8711 12.1973 38.9505 12.4109 38.9505C12.6246 38.9505 12.8307 38.8711 12.9891 38.7277L14.9489 36.9297L16.9088 38.7103C17.0677 38.8525 17.2736 38.9311 17.4869 38.9311C17.7002 38.9311 17.906 38.8525 18.065 38.7103L20.0364 36.9297L22.0078 38.7277C22.1668 38.8699 22.3726 38.9485 22.5859 38.9485C22.7992 38.9485 23.0051 38.8699 23.1641 38.7277L25.1239 36.9297L27.0837 38.7103C27.2427 38.8525 27.4486 38.9311 27.6619 38.9311C27.8752 38.9311 28.081 38.8525 28.24 38.7103L30.2114 36.9297L32.177 38.7103C32.3354 38.8537 32.5415 38.9331 32.7552 38.9331C32.9688 38.9331 33.1749 38.8537 33.3333 38.7103L35.8828 36.3978C35.9708 36.3188 36.0418 36.2226 36.0915 36.1153C36.1411 36.008 36.1685 35.8917 36.1719 35.7734V6.86719C36.1719 6.6372 36.0805 6.41662 35.9179 6.25399C35.7553 6.09136 35.5347 6 35.3047 6ZM34.4375 35.3919L32.7552 36.9297L30.7953 35.1317C30.6363 34.9895 30.4305 34.9109 30.2172 34.9109C30.0039 34.9109 29.7981 34.9895 29.6391 35.1317L27.6677 36.9297L25.7078 35.1317C25.5488 34.9895 25.343 34.9109 25.1297 34.9109C24.9164 34.9109 24.7106 34.9895 24.5516 35.1317L22.5859 36.9297L20.6203 35.1317C20.4613 34.9895 20.2555 34.9109 20.0422 34.9109C19.8289 34.9109 19.6231 34.9895 19.4641 35.1317L17.4927 36.9297L15.5328 35.1317C15.3738 34.9895 15.168 34.9109 14.9547 34.9109C14.7414 34.9109 14.5356 34.9895 14.3766 35.1317L12.4109 36.9297L10.7344 35.4092V7.73438H34.4375V35.3919Z" fill="#700044"/>
<path d="M19.673 12.8315C19.1317 13.3782 18.8281 14.1165 18.8281 14.8858H18.8397C18.8344 15.2728 18.9059 15.6571 19.0501 16.0163C19.1944 16.3756 19.4085 16.7026 19.68 16.9784C19.9516 17.2543 20.2752 17.4735 20.6321 17.6234C20.989 17.7733 21.3721 17.8508 21.7592 17.8516H23.4011C23.7055 17.8589 23.9953 17.9831 24.2106 18.1983C24.4259 18.4136 24.55 18.7035 24.5574 19.0078V19.0598C24.5575 19.3692 24.4366 19.6664 24.2205 19.8878C24.0045 20.1093 23.7104 20.2375 23.4011 20.245H20.2735C20.0435 20.245 19.8229 20.3364 19.6603 20.499C19.4976 20.6616 19.4063 20.8822 19.4063 21.1122C19.4063 21.3422 19.4976 21.5628 19.6603 21.7254C19.8229 21.888 20.0435 21.9794 20.2735 21.9794H21.6783V23.0547C21.6783 23.2847 21.7697 23.5053 21.9323 23.6679C22.0949 23.8305 22.3155 23.9219 22.5455 23.9219C22.7755 23.9219 22.9961 23.8305 23.1587 23.6679C23.3213 23.5053 23.4127 23.2847 23.4127 23.0547V21.9736C24.1815 21.9645 24.9158 21.653 25.4568 21.1067C25.9977 20.5603 26.3018 19.8229 26.3033 19.0541V18.9847C26.2943 18.2208 25.9869 17.4908 25.4467 16.9507C24.9065 16.4105 24.1765 16.1031 23.4127 16.0941H21.7592C21.4585 16.0731 21.1769 15.9388 20.9712 15.7183C20.7656 15.4978 20.6512 15.2075 20.6512 14.906C20.6512 14.6045 20.7656 14.3142 20.9712 14.0937C21.1769 13.8733 21.4585 13.739 21.7592 13.718H24.3203C24.5503 13.718 24.7709 13.6266 24.9335 13.464C25.0962 13.3013 25.1875 13.0808 25.1875 12.8508C25.1875 12.6208 25.0962 12.4002 24.9335 12.2376C24.7709 12.075 24.5503 11.9836 24.3203 11.9836H23.4531V10.9141C23.4531 10.6841 23.3618 10.4635 23.1992 10.3009C23.0365 10.1382 22.8159 10.0469 22.586 10.0469C22.356 10.0469 22.1354 10.1382 21.9728 10.3009C21.8101 10.4635 21.7188 10.6841 21.7188 10.9141V11.9662C20.9495 11.9739 20.2143 12.2848 19.673 12.8315Z" fill="#EE4FAF"/>
<path d="M29.286 26.4884C29.1234 26.651 29.0321 26.8716 29.0321 27.1016C29.0321 27.3316 29.1234 27.5521 29.286 27.7148C29.4487 27.8774 29.6692 27.9688 29.8992 27.9688H31.148C31.378 27.9688 31.5986 27.8774 31.7612 27.7148C31.9238 27.5521 32.0152 27.3316 32.0152 27.1016C32.0152 26.8716 31.9238 26.651 31.7612 26.4884C31.5986 26.3257 31.378 26.2344 31.148 26.2344H29.8992C29.6692 26.2344 29.4487 26.3257 29.286 26.4884Z" fill="#EE4FAF"/>
<path d="M13.4107 26.4884C13.2481 26.651 13.1567 26.8716 13.1567 27.1016C13.1567 27.3316 13.2481 27.5521 13.4107 27.7148C13.5734 27.8774 13.7939 27.9688 14.0239 27.9688H26.9392C27.1692 27.9688 27.3898 27.8774 27.5524 27.7148C27.7151 27.5521 27.8064 27.3316 27.8064 27.1016C27.8064 26.8716 27.7151 26.651 27.5524 26.4884C27.3898 26.3257 27.1692 26.2344 26.9392 26.2344H14.0239C13.7939 26.2344 13.5734 26.3257 13.4107 26.4884Z" fill="#EE4FAF"/>
<path d="M29.286 30.2346C29.1234 30.3972 29.0321 30.6178 29.0321 30.8478V30.8652C29.0366 31.0921 29.13 31.3083 29.2921 31.4672C29.4542 31.6261 29.6722 31.715 29.8992 31.715H31.148C31.378 31.715 31.5986 31.6236 31.7612 31.461C31.9238 31.2984 32.0152 31.0778 32.0152 30.8478C32.0152 30.6178 31.9238 30.3972 31.7612 30.2346C31.5986 30.072 31.378 29.9806 31.148 29.9806H29.8992C29.6692 29.9806 29.4487 30.072 29.286 30.2346Z" fill="#EE4FAF"/>
<path d="M13.4107 30.2346C13.2481 30.3972 13.1567 30.6178 13.1567 30.8478V30.8652C13.1613 31.0921 13.2546 31.3083 13.4168 31.4672C13.5789 31.6261 13.7969 31.715 14.0239 31.715H26.9392C27.1692 31.715 27.3898 31.6236 27.5524 31.461C27.7151 31.2984 27.8064 31.0778 27.8064 30.8478C27.8064 30.6178 27.7151 30.3972 27.5524 30.2346C27.3898 30.072 27.1692 29.9806 26.9392 29.9806H14.0239C13.7939 29.9806 13.5734 30.072 13.4107 30.2346Z" fill="#EE4FAF"/>
</svg>
