<svg width="45" height="45" viewBox="0 0 45 45" fill="none" xmlns="http://www.w3.org/2000/svg">
<path d="M23 7.63367L10 18.6564V36.8083H36V18.6564L23 7.63367ZM34.9451 35.7534H11.0549V19.1451L23 9.01634L34.9451 19.1448V35.7534Z" fill="#700044" stroke="#700044" stroke-width="0.5"/>
<path d="M26.6644 18.5341L26.5812 18.7432L26.1265 19.8861L26.0224 20.1476L25.775 20.0134C25.3616 19.7892 24.5798 19.3977 23.3807 19.3977C22.6619 19.3977 22.1711 19.6033 21.8631 19.8826C21.5549 20.1619 21.4101 20.5318 21.4101 20.9022C21.4101 21.3421 21.5753 21.6665 21.9493 21.9747C22.34 22.2966 22.9474 22.5909 23.8175 22.9444C24.624 23.259 25.4325 23.642 26.04 24.2144C26.658 24.7968 27.0609 25.5688 27.0619 26.6313V26.6315C27.0619 28.2883 25.883 29.6095 24.1219 30.0212L24.1209 30.0214L23.8614 30.0809V31.8654V32.1154H23.6114H22.4847H22.2347V31.8654V30.1806L21.9238 30.1531C20.9299 30.0658 19.9481 29.7653 19.2835 29.3304L19.116 29.2208L19.1863 29.0334L19.6224 27.8712L19.7279 27.5901L19.9852 27.7447C20.7779 28.2208 21.7941 28.5047 22.7143 28.5047C23.4011 28.5047 23.9639 28.3145 24.3492 28.0091C24.7307 27.7068 24.948 27.2854 24.948 26.7862C24.948 26.3404 24.7999 25.9698 24.4654 25.631C24.1218 25.2831 23.575 24.9624 22.7677 24.6492C21.9098 24.3276 21.0532 23.9445 20.4098 23.397C19.756 22.8406 19.318 22.1098 19.318 21.1151C19.318 19.5318 20.41 18.3086 22.0985 17.9024C22.0985 17.9024 22.0985 17.9024 22.0986 17.9024L22.355 17.8405V16.1338V15.8838H22.605H23.7322H23.9822V16.1338V17.762L24.2895 17.7923L26.6644 18.5341ZM26.6644 18.5341L26.4652 18.4295M26.6644 18.5341L26.4652 18.4295M26.4652 18.4295C25.7966 18.0781 25.0828 17.8698 24.2898 17.7923L26.4652 18.4295ZM21.4952 17.4107L21.6674 17.3543V17.1731V15.2504H24.6698V16.9837V17.1948L24.8779 17.2301C25.5927 17.3516 26.2465 17.5764 26.8712 17.9139L27.5071 18.258L26.383 21.0837L25.5003 20.5997L25.4995 20.5993L25.4978 20.5984C25.1422 20.4051 24.4573 20.0327 23.3811 20.0327C22.9012 20.0327 22.5734 20.1357 22.3638 20.3169C22.1472 20.5041 22.0978 20.7383 22.0978 20.9029C22.0978 20.9047 22.0978 20.9065 22.0978 20.9084C22.0977 20.9643 22.0976 21.0645 22.1467 21.179C22.1964 21.2951 22.2853 21.4024 22.4192 21.5115C22.6801 21.724 23.1697 21.9887 24.0885 22.3618L24.0885 22.3618L24.0917 22.3631C24.9697 22.7056 25.8858 23.1487 26.5819 23.8187C27.2696 24.4807 27.7487 25.3697 27.75 26.6314C27.7499 28.4146 26.5864 29.9173 24.7226 30.5162L24.5491 30.572V30.7543V32.75H21.5482V30.9687V30.7542L21.3362 30.7216C20.351 30.5701 19.4711 30.2471 18.8264 29.808C18.8264 29.808 18.8263 29.8079 18.8262 29.8079L18.3028 29.4492L19.3738 26.5929L20.2967 27.1743L20.2971 27.1746C20.9926 27.611 21.8927 27.8701 22.7139 27.8701C23.037 27.8701 23.4054 27.8121 23.703 27.6552C24.0099 27.4933 24.2604 27.2115 24.2604 26.7862L24.2604 26.7817C24.2604 26.7194 24.2604 26.616 24.2257 26.4954C24.1895 26.3693 24.1197 26.2374 23.9969 26.101C23.7582 25.8358 23.3156 25.5504 22.5066 25.2369L22.5041 25.236C21.5725 24.8863 20.599 24.4397 19.86 23.7851C19.1294 23.1379 18.6299 22.29 18.6299 21.1151C18.6299 19.3974 19.7039 17.9975 21.4952 17.4107Z" fill="#EE4FAF" stroke="#EE4FAF" stroke-width="0.5"/>
</svg>
