<svg width="45" height="45" viewBox="0 0 45 45" fill="none" xmlns="http://www.w3.org/2000/svg">
<path fill-rule="evenodd" clip-rule="evenodd" d="M33.75 29.7368V26.4211C33.75 25.2053 34.7625 24.2105 36 24.2105L39 23.0941V25.6842V27.1579V29V30.4737V33.0638L36 31.9474C34.7625 31.9474 33.75 30.9526 33.75 29.7368ZM37.5 30.4737V25.6842H36.75C35.925 25.6842 35.25 26.3474 35.25 27.1579V29C35.25 29.8105 35.925 30.4737 36.75 30.4737H37.5ZM27.1875 19.4211C23.9625 19.4211 21.375 16.8789 21.375 13.7105C21.375 10.5421 23.9625 8 27.1875 8C30.4125 8 33 10.5421 33 13.7105C33 16.8789 30.4125 19.4211 27.1875 19.4211ZM27.1875 9.47368C24.7875 9.47368 22.875 11.3526 22.875 13.7105C22.875 16.0684 24.7875 17.9474 27.1875 17.9474C29.5875 17.9474 31.5 16.0684 31.5 13.7105C31.5 11.3526 29.5875 9.47368 27.1875 9.47368ZM14.8125 19.4211C11.5875 19.4211 9 16.8789 9 13.7105C9 10.5421 11.5875 8 14.8125 8C18.0375 8 20.625 10.5421 20.625 13.7105C20.625 16.8789 18.0375 19.4211 14.8125 19.4211ZM14.8125 9.47368C12.4125 9.47368 10.5 11.3526 10.5 13.7105C10.5 16.0684 12.4125 17.9474 14.8125 17.9474C17.2125 17.9474 19.125 16.0684 19.125 13.7105C19.125 11.3526 17.2125 9.47368 14.8125 9.47368ZM11.25 20.1579H30C31.2375 20.1579 32.25 21.1526 32.25 22.3684V33.7895C32.25 35.0053 31.2375 36 30 36H11.25C10.0125 36 9 35.0053 9 33.7895V22.3684C9 21.1526 10.0125 20.1579 11.25 20.1579ZM10.5 33.0526C10.5 33.8632 11.175 34.5263 12 34.5263H29.25C30.075 34.5263 30.75 33.8632 30.75 33.0526V23.1053C30.75 22.2947 30.075 21.6316 29.25 21.6316H12C11.175 21.6316 10.5 22.2947 10.5 23.1053V33.0526Z" fill="#700044"/>
<path d="M24.75 13.7105C24.75 15.0368 25.8375 16.1053 27.1875 16.1053C28.5375 16.1053 29.625 15.0368 29.625 13.7105C29.625 12.3842 28.5375 11.3158 27.1875 11.3158C25.8375 11.3158 24.75 12.3842 24.75 13.7105Z" fill="#EE4FAF"/>
<path d="M12.375 13.7105C12.375 15.0368 13.4625 16.1053 14.8125 16.1053C16.1625 16.1053 17.25 15.0368 17.25 13.7105C17.25 12.3842 16.1625 11.3158 14.8125 11.3158C13.4625 11.3158 12.375 12.3842 12.375 13.7105Z" fill="#EE4FAF"/>
<path d="M28.5 23.1053H12.75C12.1125 23.1053 11.625 23.5842 11.625 24.2105V25.3158C11.625 25.7211 11.9625 26.0527 12.375 26.0527C12.7875 26.0527 13.125 25.7211 13.125 25.3158C13.125 24.9105 13.4625 24.579 13.875 24.579H27.375C27.7875 24.579 28.125 24.9105 28.125 25.3158C28.125 25.7211 28.4625 26.0527 28.875 26.0527C29.2875 26.0527 29.625 25.7211 29.625 25.3158V24.2105C29.625 23.5842 29.1375 23.1053 28.5 23.1053Z" fill="#EE4FAF"/>
</svg>
