<svg id="Layer_1" data-name="Layer 1" xmlns="http://www.w3.org/2000/svg" viewBox="0 0 1200 1200"><defs><style>.cls-1{fill:#d75fa4;stroke:#d75fa4;stroke-width:12px;}.cls-1,.cls-2{stroke-miterlimit:10;}.cls-2{fill:#631144;stroke:#631144;stroke-width:18px;}</style></defs><path class="cls-1" d="M593.11,615.8a42.5,42.5,0,1,0-25.9,0A64.93,64.93,0,0,0,550,621.92l-6,3.13,4.75,4.81a85.75,85.75,0,0,1,7.91,9.27l2.39,3.27,3.69-1.67A42.46,42.46,0,0,1,622,687l-1,5.87h23l.6-4.31a66.21,66.21,0,0,0,.63-9A65.11,65.11,0,0,0,593.11,615.8ZM561,575.33a19.11,19.11,0,1,1,19.1,19.11A19.12,19.12,0,0,1,561,575.33Z"/><path class="cls-1" d="M490.14,607.83a80.09,80.09,0,0,0-80,80v5h22.5v-5a57.5,57.5,0,0,1,115,0v5h22.5v-5A80.09,80.09,0,0,0,490.14,607.83Z"/><path class="cls-1" d="M490.14,605.33a48.75,48.75,0,1,0-48.75-48.75A48.8,48.8,0,0,0,490.14,605.33Zm-27-48.75a27,27,0,1,1,27,27A27.07,27.07,0,0,1,463.11,556.58Z"/><path class="cls-1" d="M421.22,642.4l2.39-3.27a84.63,84.63,0,0,1,7.91-9.27l4.75-4.81-6-3.13a64.93,64.93,0,0,0-17.21-6.11,42.51,42.51,0,1,0-25.9,0,65.12,65.12,0,0,0-52,63.7,66.14,66.14,0,0,0,.64,9l.6,4.31h23L358.31,687a43.19,43.19,0,0,1-.67-7.46,42.48,42.48,0,0,1,59.89-38.77ZM381,575.33a19.11,19.11,0,1,1,19.1,19.11A19.12,19.12,0,0,1,381,575.33Z"/><path class="cls-2" d="M762.58,598.9H747.8a12.94,12.94,0,0,0,0,25.87h14.78a12.94,12.94,0,1,0,0-25.87Z"/><path class="cls-2" d="M893.76,512.42V419.69a12.93,12.93,0,0,0-12.93-12.93H849.42v-61a12.93,12.93,0,0,0-12.93-12.93H806.93a12.93,12.93,0,1,0,0,25.86h16.62v48h-48V360.57a12.93,12.93,0,0,0-12.94-12.93H746V301.45A12.94,12.94,0,0,0,733,288.51H378.29a12.93,12.93,0,0,0-12.93,12.94V406.76h-38.8a24,24,0,1,1,0-48H334a12.93,12.93,0,1,0,0-25.86h-7.39a49.94,49.94,0,0,0-49.88,49.88V774.42A57.33,57.33,0,0,0,334,831.69H880.83a12.93,12.93,0,0,0,12.93-12.93V681.87a42.55,42.55,0,0,0,29.56-40.47V552.71C923.32,534.54,910.52,518.17,893.76,512.42ZM749.65,406.76H465.13V373.5H749.65ZM391.23,314.38H720.09v33.26H452.2a12.93,12.93,0,0,0-12.94,12.93v46.19h-48ZM334,805.83a31.44,31.44,0,0,1-31.41-31.41v-348a49.52,49.52,0,0,0,24,6.18H867.9v90.53c0,2.78-.81,16.63-16.63,16.63H747.8a72.06,72.06,0,0,0,0,144.11H867.9V805.83ZM897.46,641.4A16.64,16.64,0,0,1,880.83,658h-133a46.19,46.19,0,0,1,0-92.37H851.27c20.33,0,33.6-11.36,39.3-25.7,3.91,3.12,6.89,7.79,6.89,12.76Z"/><rect class="cls-1" x="336.18" y="692.72" width="64.3" height="17.56"/><rect class="cls-1" x="579.62" y="692.72" width="64.3" height="17.56"/><rect class="cls-1" x="410.12" y="692.72" width="159.8" height="17.56"/></svg>