<svg width="45" height="45" viewBox="0 0 45 45" fill="none" xmlns="http://www.w3.org/2000/svg">
<path d="M35.7463 26.9834C35.6694 26.8349 35.5638 26.7042 35.436 26.5994C35.3082 26.4946 35.1609 26.418 35.0032 26.3743C34.8456 26.3306 34.6809 26.3207 34.5194 26.3452C34.3579 26.3698 34.203 26.4282 34.0643 26.517L22.9772 33.1218C22.3389 32.6483 21.5505 32.4417 20.7706 32.5434L13.0657 18.83C12.9693 18.629 12.8005 18.475 12.5954 18.4008L9.71967 17.0948C9.56766 17.0311 9.40497 16.9989 9.2409 17C9.07683 17.0012 8.91458 17.0357 8.76343 17.1015C8.61227 17.1673 8.47517 17.2632 8.35994 17.3837C8.24472 17.5042 8.15363 17.647 8.09187 17.8038C8.03012 17.9606 7.99891 18.1284 8.00003 18.2977C8.00115 18.4669 8.03457 18.6343 8.09839 18.7902C8.16221 18.9461 8.25518 19.0876 8.37199 19.2064C8.4888 19.3253 8.62715 19.4193 8.77917 19.483L11.2751 20.5838L18.6725 33.8308C18.3208 34.3473 18.1173 34.9555 18.0853 35.5858C18.0533 36.2161 18.1942 36.8429 18.4917 37.3945C18.6939 37.7618 18.9651 38.0837 19.2896 38.3414C19.614 38.5991 19.9851 38.7873 20.381 38.8951C20.7769 39.0028 21.1897 39.0279 21.5951 38.9689C22.0006 38.9098 22.3905 38.7678 22.742 38.5512C23.2757 38.2433 23.7095 37.7801 23.9894 37.2193C24.2692 36.6585 24.3827 36.025 24.3156 35.3981L35.4027 28.7932C35.6794 28.6188 35.8794 28.3402 35.9604 28.0163C36.0414 27.6925 35.9971 27.3488 35.8367 27.058L35.7463 26.9834Z" stroke="#700044" stroke-width="1.5"/>
<path d="M18.8512 14.2324L20.4862 17.2151L20.4968 17.2344L20.5082 17.2531C20.6569 17.4983 20.8524 17.7137 21.0857 17.8846C21.3192 18.0555 21.5854 18.1782 21.8696 18.2427C22.1539 18.3072 22.448 18.3118 22.7342 18.2559C23.0096 18.2021 23.27 18.094 23.5019 17.9396C23.7434 17.7907 23.9522 17.5961 24.1187 17.3689C24.2915 17.1331 24.4159 16.866 24.4869 16.5842C24.5579 16.3023 24.5747 16.0092 24.5366 15.7213C24.4989 15.4357 24.4077 15.1587 24.2664 14.9063L22.63 11.9183L23.8093 11.1992C23.8093 11.1992 23.8093 11.1992 23.8094 11.1992C23.9717 11.1002 24.1482 11.0376 24.3286 11.0125C24.509 10.9875 24.6925 11 24.8694 11.0501L25.1417 10.0879L24.8694 11.0501C25.0464 11.1002 25.2156 11.1875 25.3666 11.3098C25.5176 11.4322 25.6476 11.5875 25.7467 11.7688L25.7478 11.7707L30.7337 20.8461L30.7448 20.8663L30.7569 20.886C30.8693 21.0701 30.9462 21.2796 30.9802 21.5015C31.0142 21.7234 31.0043 21.9504 30.9514 22.1674L31.9229 22.4043L30.9514 22.1674C30.8985 22.3843 30.8044 22.5842 30.6776 22.7551C30.5509 22.9259 30.3949 23.0633 30.2219 23.1617L30.2128 23.1668L30.2039 23.1722L24.1176 26.8023L24.1154 26.8036C23.7874 27.0004 23.4068 27.05 23.051 26.9493C22.6944 26.8484 22.3733 26.5988 22.1701 26.2346C22.1696 26.2337 22.1691 26.2327 22.1686 26.2318L17.1904 17.1162C16.9962 16.7425 16.9471 16.2971 17.059 15.8804C17.1713 15.462 17.4316 15.1237 17.7643 14.9263L17.7785 14.9179L17.7924 14.9089L18.8512 14.2324Z" stroke="#EE4FAF" stroke-width="2"/>
</svg>
