<svg width="44" height="44" viewBox="0 0 44 44" fill="none" xmlns="http://www.w3.org/2000/svg">
<path d="M43 14.9074C43 22.1529 7.97433 30.1503 5.32215 30.1503C3.8352 30.1503 2.14813 29.8085 2.14813 28.4415C2.14813 27.9847 2.67677 27.3246 3.60441 26.5287L3.60338 26.5293L1.14473 22.1728C0.811818 21.583 1.07576 20.8358 1.70576 20.5842L2.1283 20.4155C2.89411 20.1097 3.756 20.1553 4.48503 20.5401L8.9485 22.8966C10.6863 21.8687 12.6577 20.7924 14.7356 19.7328L6.03739 14.1052C5.34926 13.66 5.3566 12.653 6.05118 12.2178L6.76271 11.772C7.94695 11.0301 9.38661 10.811 10.7388 11.1666L25.2089 14.9729C29.7207 13.187 33.7998 11.9682 36.2143 11.9682C36.8591 11.9682 37.5049 11.9852 38.1281 12.0296L33.7582 13.9969L33.6536 15.4627L40.399 12.3705C42.016 12.755 43 13.4727 43 14.9074ZM25.3965 27.4146L30.7939 33.5291C31.1229 33.9018 31.6586 34.014 32.1099 33.8047L32.8328 33.4697C34.151 32.8587 34.9273 31.4732 34.7585 30.0335L34.0828 24.272C34.041 23.9155 33.6782 23.6898 33.3387 23.8091L25.6313 26.5166C25.2562 26.6485 25.1336 27.1169 25.3965 27.4146Z" fill="#36BC99"/>
</svg>
