<svg width="45" height="45" viewBox="0 0 45 45" fill="none" xmlns="http://www.w3.org/2000/svg">
<path d="M38.0178 18.5571H7.9822C7.7217 18.5571 7.47188 18.6615 7.28768 18.8473C7.10348 19.0331 7 19.2851 7 19.5479V37.0093C7 37.272 7.10348 37.524 7.28768 37.7098C7.47188 37.8956 7.7217 38 7.9822 38H38.0178C38.2783 38 38.5281 37.8956 38.7123 37.7098C38.8965 37.524 39 37.272 39 37.0093V19.5479C39 19.2851 38.8965 19.0331 38.7123 18.8473C38.5281 18.6615 38.2783 18.5571 38.0178 18.5571ZM37.0356 36.0185H8.96439V20.5386H37.0356V36.0185ZM23 34.0258C24.1267 34.0258 25.2281 33.6888 26.1649 33.0574C27.1018 32.426 27.8319 31.5286 28.2631 30.4786C28.6943 29.4286 28.8071 28.2732 28.5873 27.1585C28.3675 26.0438 27.8249 25.02 27.0282 24.2163C26.2315 23.4127 25.2164 22.8654 24.1114 22.6437C23.0063 22.422 21.8609 22.5358 20.8199 22.9707C19.779 23.4056 18.8893 24.1421 18.2633 25.0871C17.6374 26.0321 17.3033 27.1431 17.3033 28.2796C17.3053 29.8029 17.9062 31.2633 18.9741 32.3405C20.042 33.4177 21.4898 34.0237 23 34.0258ZM23 24.5148C23.7382 24.5148 24.4598 24.7356 25.0736 25.1492C25.6874 25.5629 26.1657 26.1509 26.4482 26.8388C26.7307 27.5268 26.8046 28.2837 26.6606 29.014C26.5166 29.7443 26.1611 30.4152 25.6392 30.9417C25.1172 31.4682 24.4521 31.8268 23.7281 31.972C23.0041 32.1173 22.2537 32.0427 21.5717 31.7578C20.8897 31.4728 20.3068 30.9903 19.8967 30.3712C19.4865 29.7521 19.2676 29.0242 19.2676 28.2796C19.2685 27.2812 19.662 26.324 20.3617 25.6179C21.0614 24.9119 22.0103 24.5147 23 24.5134V24.5148Z" fill="#700044"/>
<path d="M11.0654 22.846C10.8812 23.0318 10.7777 23.2838 10.7777 23.5465V23.5452C10.7775 23.6754 10.8028 23.8044 10.8521 23.9247C10.9014 24.0451 10.9737 24.1545 11.0649 24.2466C11.1561 24.3387 11.2645 24.4118 11.3837 24.4617C11.503 24.5116 11.6308 24.5373 11.7599 24.5373H14.9894C15.2499 24.5373 15.4997 24.4329 15.6839 24.2471C15.8681 24.0613 15.9716 23.8093 15.9716 23.5465C15.9716 23.2838 15.8681 23.0318 15.6839 22.846C15.4997 22.6602 15.2499 22.5558 14.9894 22.5558H11.7599C11.4994 22.5558 11.2496 22.6602 11.0654 22.846Z" fill="#EE4FAF"/>
<path d="M31.3161 33.3114C31.1319 33.4972 31.0284 33.7492 31.0284 34.012C31.0284 34.2747 31.1319 34.5267 31.3161 34.7125C31.5003 34.8983 31.7501 35.0027 32.0106 35.0027H35.2401C35.5006 35.0027 35.7504 34.8983 35.9346 34.7125C36.1188 34.5267 36.2223 34.2747 36.2223 34.012C36.2223 33.7492 36.1188 33.4972 35.9346 33.3114C35.7504 33.1256 35.5006 33.0212 35.2401 33.0212H32.0106C31.7501 33.0212 31.5003 33.1256 31.3161 33.3114Z" fill="#EE4FAF"/>
<path d="M13 10.5285C13 10.7912 13.1034 11.0432 13.2876 11.229L13.2843 11.2343C13.4685 11.42 13.7183 11.5243 13.9787 11.5243C14.2392 11.5243 14.4889 11.42 14.6731 11.2343L16.5066 9.38488V15.8247C16.5066 16.0874 16.61 16.3394 16.7942 16.5252C16.9784 16.711 17.2283 16.8154 17.4888 16.8154C17.7493 16.8154 17.9991 16.711 18.1833 16.5252C18.3675 16.3394 18.471 16.0874 18.471 15.8247V9.38488L20.3044 11.229C20.3946 11.3252 20.5031 11.4021 20.6233 11.4553C20.7435 11.5085 20.8731 11.5368 21.0044 11.5386C21.1356 11.5405 21.2659 11.5157 21.3876 11.4658C21.5092 11.416 21.6197 11.3421 21.7125 11.2484C21.8053 11.1547 21.8785 11.0433 21.9279 10.9205C21.9773 10.7978 22.0018 10.6664 21.9999 10.534C21.998 10.4016 21.9699 10.2709 21.9171 10.1496C21.8643 10.0284 21.788 9.91905 21.6926 9.82807L18.1868 6.29246C18.0948 6.19932 17.9852 6.12566 17.8646 6.07582L17.8502 6.0712C17.6193 5.97627 17.3608 5.97627 17.1299 6.0712L17.1155 6.07582C16.9949 6.12566 16.8854 6.19932 16.7934 6.29246L13.2876 9.82807C13.1034 10.0139 13 10.2658 13 10.5285Z" fill="#EE4FAF"/>
<path d="M23 10.5285C23 10.7912 23.1034 11.0432 23.2876 11.229L23.2843 11.2343C23.4685 11.42 23.7183 11.5243 23.9787 11.5243C24.2392 11.5243 24.4889 11.42 24.6731 11.2343L26.5066 9.38488V15.8247C26.5066 16.0874 26.61 16.3394 26.7942 16.5252C26.9784 16.711 27.2283 16.8154 27.4888 16.8154C27.7493 16.8154 27.9991 16.711 28.1833 16.5252C28.3675 16.3394 28.471 16.0874 28.471 15.8247V9.38488L30.3044 11.229C30.3946 11.3252 30.5031 11.4021 30.6233 11.4553C30.7435 11.5085 30.8731 11.5368 31.0044 11.5386C31.1356 11.5405 31.2659 11.5157 31.3876 11.4658C31.5092 11.416 31.6197 11.3421 31.7125 11.2484C31.8053 11.1547 31.8785 11.0433 31.9279 10.9205C31.9773 10.7978 32.0018 10.6664 31.9999 10.534C31.998 10.4016 31.9699 10.2709 31.9171 10.1496C31.8643 10.0284 31.788 9.91905 31.6926 9.82807L28.1868 6.29246C28.0948 6.19932 27.9852 6.12566 27.8646 6.07582L27.8502 6.0712C27.6193 5.97627 27.3608 5.97627 27.1299 6.0712L27.1155 6.07582C26.9949 6.12566 26.8854 6.19932 26.7934 6.29246L23.2876 9.82807C23.1034 10.0139 23 10.2658 23 10.5285Z" fill="#EE4FAF"/>
</svg>
