<svg width="44" height="44" viewBox="0 0 44 44" fill="none" xmlns="http://www.w3.org/2000/svg">
<path fill-rule="evenodd" clip-rule="evenodd" d="M30 6C32.2053 6 34 7.76318 34 9.92982V28.269C34 28.9921 33.4027 29.5789 32.6667 29.5789L30.3787 29.5787L33.8592 36.1725C34.1649 36.7518 33.9557 37.4466 33.397 37.7937L33.2619 37.8674C33.0712 37.9571 32.8672 38 32.6673 38C32.178 38 31.7073 37.7449 31.474 37.3016L30.5088 35.474H13.4915L12.5276 37.3016C12.2929 37.7449 11.8223 38 11.333 38C11.133 38 10.929 37.9571 10.7371 37.8661C10.0785 37.5542 9.81181 36.7951 10.1411 36.1712L13.6187 29.5787L11.3333 29.5789C10.6499 29.5789 10.086 29.0729 10.009 28.4217L10 28.269V9.92982C10 7.76318 11.7947 6 14 6H30ZM27.4088 29.5788L16.5909 29.5789C16.5727 29.6278 16.551 29.6761 16.5259 29.7237L14.8247 32.9481H29.1755L27.4744 29.7249C27.449 29.6769 27.4272 29.6281 27.4088 29.5788ZM15.3333 21.7193C13.8613 21.7193 12.6667 22.893 12.6667 24.3392C12.6667 25.7854 13.8613 26.9591 15.3333 26.9591C16.8053 26.9591 18 25.7854 18 24.3392C18 22.893 16.8053 21.7193 15.3333 21.7193ZM28.6667 21.7193C27.1947 21.7193 26 22.893 26 24.3392C26 25.7854 27.1947 26.9591 28.6667 26.9591C30.1387 26.9591 31.3333 25.7854 31.3333 24.3392C31.3333 22.893 30.1387 21.7193 28.6667 21.7193ZM30 8.61988H14C13.264 8.61988 12.6667 9.20674 12.6667 9.92982V17.7895C12.6667 18.5126 13.264 19.0994 14 19.0994H30C30.736 19.0994 31.3333 18.5126 31.3333 17.7895V9.92982C31.3333 9.20674 30.736 8.61988 30 8.61988Z" fill="#F96268"/>
</svg>
