<svg width="98" height="45" viewBox="0 0 98 45" fill="none" xmlns="http://www.w3.org/2000/svg">
<path fill-rule="evenodd" clip-rule="evenodd" d="M9.11563 18.4179H37.7655C38.8818 18.4179 39.8119 17.4877 39.8119 16.3715V15.0692C39.8119 13.953 38.8818 13.0228 37.7655 13.0228H9.11563C7.9994 13.0228 7.06921 13.953 7.06921 15.0692V16.3715C7.06921 17.4877 7.9994 18.4179 9.11563 18.4179Z" fill="#F96268"/>
<path fill-rule="evenodd" clip-rule="evenodd" d="M30.5103 29.766V28.4638C30.5103 27.3475 29.5801 26.4174 28.4638 26.4174H2.04642C0.930191 26.4174 0 27.3475 0 28.4638V29.766C0 30.8823 0.930191 31.8125 2.04642 31.8125H28.4638C29.5801 31.8125 30.5103 30.8823 30.5103 29.766Z" fill="#F96268"/>
<path fill-rule="evenodd" clip-rule="evenodd" d="M93.9495 0H19.5342C17.6739 0 16.1855 1.48831 16.1855 3.34869V10.0461C16.1855 10.4181 16.5576 10.6042 16.7437 10.6042H37.2079C39.8124 10.6042 42.0449 12.8366 42.0449 15.4412C42.0449 18.0457 39.8124 20.2782 37.2079 20.2782H16.7437C16.3716 20.2782 16.1855 20.6502 16.1855 20.8363V23.2548C16.1855 23.6269 16.5576 23.8129 16.7437 23.8129H27.7199C30.3245 23.8129 32.5569 26.0454 32.5569 28.6499C32.5569 31.2544 30.3245 33.4869 27.7199 33.4869H16.7437C16.3716 33.4869 16.1855 33.859 16.1855 34.045V40.7424C16.1855 42.6028 17.6739 44.0911 19.5342 44.0911H93.9495C95.8099 44.0911 97.2982 42.6028 97.2982 40.7424V2.97661C97.4843 1.48831 95.9959 0 93.9495 0ZM58.7883 32.5567V34.7891C58.7883 35.3473 58.6023 35.7193 58.0441 35.7193H55.8117C55.0675 35.7193 55.0675 35.3473 55.0675 34.7891V32.3706C52.0909 31.6265 49.3004 29.5801 49.3004 26.2314C49.3004 25.4872 49.4864 25.3012 50.0445 25.3012H52.8351C53.5792 25.3012 53.7653 25.3012 53.9513 26.2314C53.9513 26.6035 54.1373 26.9755 54.5094 27.5336C55.0675 28.2778 56.1838 28.4638 57.3 28.4638C58.7883 28.4638 60.0906 28.0918 60.0906 26.4174C60.0906 24.7431 57.486 24.7431 55.0675 23.8129C52.0909 22.8827 49.4864 21.5804 49.4864 17.8597C49.4864 14.511 51.9049 12.6506 54.8815 12.0925V9.86002C54.8815 9.3019 55.0675 8.92983 55.6257 8.92983H57.8581C58.6023 8.92983 58.6023 9.3019 58.6023 9.86002V12.2785C61.3928 12.8366 63.8113 14.697 63.8113 17.6736C63.8113 18.4178 63.6253 18.6038 63.0672 18.6038H60.2766C59.7185 18.6038 59.7185 18.2317 59.5325 17.8597C59.3464 17.4876 59.3464 17.3015 58.9743 16.9295C58.4162 16.3714 57.486 16.1853 56.5558 16.1853C55.6257 16.1853 53.9513 16.5574 53.9513 17.8597C53.9513 19.72 58.2302 20.2782 59.3464 20.8363C61.3928 21.5804 64.3694 22.3246 64.3694 26.4174C64.5555 29.9521 62.137 31.9986 58.7883 32.5567Z" fill="#F96268"/>
</svg>
