<svg width="45" height="45" viewBox="0 0 45 45" fill="none" xmlns="http://www.w3.org/2000/svg">
<path d="M38.2445 22.524C37.3838 18.2923 35.5549 12.6262 29.9963 12.4827C28.8129 12.4468 27.486 12.5903 26.0516 12.8772C25.0116 13.0924 23.9716 13.1999 22.8957 13.2358V8.86068C22.8957 8.39448 22.5013 8 22.0351 8C21.5689 8 21.1744 8.39448 21.1744 8.86068V13.2358C20.0985 13.1999 19.0585 13.0565 18.0186 12.8772C16.62 12.5903 15.2572 12.4827 14.0738 12.4827C8.51523 12.5903 6.68628 18.2564 5.8256 22.524C4.85734 27.2218 4.53459 30.808 6.00491 32.9956C6.72215 34.0355 7.79799 34.6811 9.1966 34.9321C12.8545 35.5776 16.3331 32.7087 18.7717 27.1143H25.2985C27.486 32.2066 30.5343 35.0038 33.8335 35.0038C34.1563 35.0038 34.5149 34.9679 34.8377 34.9321C36.2721 34.6811 37.348 34.0355 38.0293 32.9956C39.5355 30.808 39.2128 27.2218 38.2445 22.524ZM36.6307 32.0632C36.2004 32.7087 35.519 33.1031 34.5508 33.2825C30.5343 33.9638 27.8446 28.7639 26.8764 26.5046C26.5895 25.8591 25.9798 25.4646 25.2985 25.4646H18.7717C18.0903 25.4646 17.4806 25.8591 17.1937 26.5046C16.2255 28.7639 13.5359 33.9997 9.51935 33.2825C8.55109 33.1031 7.86972 32.7087 7.43938 32.0632C6.22008 30.2701 6.75801 26.5763 7.5111 22.8826C8.7304 16.9654 10.7745 14.3116 14.1096 14.2399C14.1814 14.2399 14.2889 14.2399 14.3607 14.2399C15.3648 14.2399 16.4765 14.3475 17.6599 14.5985C20.493 15.1723 23.5054 15.1723 26.3385 14.5985C27.6295 14.3475 28.8488 14.2399 29.8888 14.2399C33.2598 14.3116 35.3039 17.0013 36.4873 22.8826C37.3121 26.5763 37.85 30.2701 36.6307 32.0632Z" fill="#700044"/>
<path d="M17.5333 19.3333H15.6667V17.4667C15.6667 17.2333 15.4722 17 15.2 17H13.8C13.5667 17 13.3333 17.1944 13.3333 17.4667V19.3333H11.4667C11.2333 19.3333 11 19.5278 11 19.8V21.2C11 21.4333 11.1944 21.6667 11.4667 21.6667H13.3333V23.5333C13.3333 23.7667 13.5278 24 13.8 24H15.2C15.4333 24 15.6667 23.8056 15.6667 23.5333V21.6667H17.5333C17.7667 21.6667 18 21.4722 18 21.2V19.8C18 19.5667 17.8056 19.3333 17.5333 19.3333Z" fill="#EE4FAF"/>
<path d="M29.5598 16.5751C28.7161 16.5751 28.0598 17.2313 28.0598 18.0751C28.0598 18.9188 28.7161 19.5751 29.5598 19.5751C30.4036 19.5751 31.0598 18.9188 31.0598 18.0751C31.0598 17.2782 30.4036 16.5751 29.5598 16.5751Z" fill="#EE4FAF"/>
<path d="M32.855 19.9061C32.0112 19.9061 31.355 20.5623 31.355 21.4061C31.355 22.2498 32.0112 22.9061 32.855 22.9061C33.6987 22.9061 34.355 22.2498 34.355 21.4061C34.355 20.5623 33.6987 19.9061 32.855 19.9061Z" fill="#EE4FAF"/>
<path d="M26.2288 19.9061C25.385 19.9061 24.7288 20.5623 24.7288 21.4061C24.7288 22.2498 25.385 22.9061 26.2288 22.9061C27.0725 22.9061 27.7287 22.2498 27.7287 21.4061C27.7287 20.6092 27.0725 19.9061 26.2288 19.9061Z" fill="#EE4FAF"/>
<path d="M29.5239 23.2371C28.6802 23.2371 28.0239 23.8933 28.0239 24.7371C28.0239 25.5808 28.6802 26.2371 29.5239 26.2371C30.3677 26.2371 31.0239 25.5808 31.0239 24.7371C31.0239 23.8933 30.3677 23.2371 29.5239 23.2371Z" fill="#EE4FAF"/>
</svg>
