<svg width="45" height="45" viewBox="0 0 45 45" fill="none" xmlns="http://www.w3.org/2000/svg">
<path d="M20.2404 25.8406C20.7972 26.2944 21.5397 26.5625 22.3647 26.5625C24.0766 26.5625 25.4585 25.4075 25.4585 23.9844C25.4585 22.5613 24.0766 21.4062 22.3647 21.4062C20.6529 21.4062 19.271 20.2512 19.271 18.8281C19.271 17.405 20.6529 16.25 22.3647 16.25C23.1897 16.25 23.9322 16.5181 24.4891 16.9719" stroke="#EE4FAF" stroke-width="2.0625" stroke-miterlimit="10" stroke-linecap="round" stroke-linejoin="round"/>
<path d="M22.3647 14.1875V16.25" stroke="#EE4FAF" stroke-width="2.0625" stroke-miterlimit="10" stroke-linecap="round" stroke-linejoin="round"/>
<path d="M22.3647 26.5625V28.625" stroke="#EE4FAF" stroke-width="2.0625" stroke-miterlimit="10" stroke-linecap="round" stroke-linejoin="round"/>
<path d="M22.3648 8L11.021 12.125V19.3438C11.021 27.6577 9.9898 32.75 22.3648 36.875C34.7398 32.75 33.7085 27.6577 33.7085 19.3438V12.125L22.3648 8Z" stroke="#700044" stroke-width="2.0625" stroke-miterlimit="10" stroke-linecap="round" stroke-linejoin="round"/>
</svg>
