<svg width="45" height="45" viewBox="0 0 45 45" fill="none" xmlns="http://www.w3.org/2000/svg">
<rect x="15" y="23" width="16" height="2" rx="1" fill="#EE4FAF"/>
<path d="M28.9528 19.5046L28.9521 19.5044C26.7245 18.9475 25.736 18.2729 25.3478 17.84L25.4865 17.701L25.6899 17.4974L25.69 17.4975L25.6935 17.4936C26.5062 16.588 26.8391 15.3863 26.9708 14.3751C27.0805 13.5325 27.0516 12.8085 27.0389 12.491C27.0363 12.4275 27.0345 12.3802 27.0345 12.3516H27.0346L27.0343 12.3464C26.9424 10.5519 26.2272 9.42449 25.3291 8.75393C24.4361 8.08712 23.3717 7.87895 22.584 7.90165C21.7966 7.87917 20.7323 8.08734 19.8393 8.75409C18.9418 9.42416 18.2269 10.5504 18.1342 12.3429C18.1106 12.5376 18.044 13.3691 18.1805 14.3755C18.3174 15.3858 18.6607 16.5852 19.4704 17.4903C19.5915 17.651 19.7458 17.7771 19.8971 17.8923C19.459 18.3246 18.4334 18.9526 16.3508 19.5051C15.5798 19.7038 14.9996 20.1991 14.6393 20.9031L14.5963 20.9872L14.6779 21.0349C14.9702 21.206 15.4575 21.4407 16.2387 21.7013L16.3114 21.7255L16.3537 21.6617C16.4614 21.4991 16.6028 21.378 16.8068 21.3302L16.8068 21.3302L16.8085 21.3297C19.7936 20.5727 21.0974 19.5486 21.6792 18.7141C21.9383 18.7563 22.2368 18.7963 22.5385 18.7963H22.5841H22.5841H22.5841H22.5841H22.5841H22.5841H22.5841H22.5841H22.5841H22.5841H22.5841H22.5841H22.5842H22.5842H22.5842H22.5842H22.5842H22.5842H22.5842H22.5842H22.5842H22.5843H22.5843H22.5843H22.5843H22.5843H22.5843H22.5843H22.5843H22.5843H22.5843H22.5843H22.5843H22.5844H22.5844H22.5844H22.5844H22.5844H22.5844H22.5844H22.5844H22.5844H22.5845H22.5845H22.5845H22.5845H22.5845H22.5845H22.5845H22.5845H22.5845H22.5846H22.5846H22.5846H22.5846H22.5846H22.5846H22.5846H22.5847H22.5847H22.5847H22.5847H22.5847H22.5847H22.5848H22.5848H22.5848H22.5848H22.5848H22.5848H22.5849H22.5849H22.5849H22.5849H22.5849H22.5849H22.585H22.585H22.585H22.585H22.585H22.5851H22.5851H22.5851H22.5851H22.5852H22.5852H22.5852H22.5852H22.5852H22.5853H22.5853H22.5853H22.5853H22.5854H22.5854H22.5854H22.5854H22.5855H22.5855H22.5855H22.5856H22.5856H22.5856H22.5856H22.5857H22.5857H22.5857H22.5858H22.5858H22.5858H22.5858H22.5859H22.5859H22.5859H22.586H22.586H22.586H22.5861H22.5861H22.5861H22.5862H22.5862H22.5862H22.5863H22.5863H22.5863H22.5864H22.5864H22.5865H22.5865H22.5865H22.5866H22.5866H22.5866H22.5867H22.5867H22.5868H22.5868H22.5869H22.5869H22.5869H22.587H22.587H22.5871H22.5871H22.5872H22.5872H22.5872H22.5873H22.5873H22.5874H22.5874H22.5875H22.5875H22.5876H22.5876H22.5877H22.5877H22.5878H22.5878H22.5879H22.5879H22.588H22.588H22.5881H22.5881H22.5882H22.5882H22.5883H22.5883H22.5884H22.5885H22.5885H22.5886H22.5886H22.5887H22.5887H22.5888H22.5889H22.5889H22.589H22.589H22.5891H22.5892H22.5892H22.5893H22.5894H22.5894H22.5895H22.5896H22.5896H22.5897H22.5897H22.5898H22.5899H22.59H22.59H22.5901H22.5902H22.5902H22.5903H22.5904H22.5904H22.5905H22.5906H22.5907H22.5907H22.5908H22.5909H22.591H22.591H22.5911H22.5912H22.5913H22.5913H22.5914H22.5915H22.5916H22.5917H22.5917H22.5918H22.5919H22.592H22.5921H22.5922H22.5922H22.5923H22.5924H22.5925H22.5926H22.5927H22.5928H22.5929H22.5929H22.593H22.5931H22.5932H22.5933H22.5934H22.5935H22.5936H22.5937H22.5938H22.5939H22.594H22.5941H22.5942H22.5943H22.5944H22.5945H22.5946H22.5947H22.5948H22.5949H22.595H22.5951H22.5952H22.5953H22.5954H22.5955H22.5956H22.5957H22.5958H22.5959H22.596H22.5961H22.5963H22.5964H22.5965H22.5966H22.5967H22.5968H22.5969H22.597H22.5972H22.5973H22.5974H22.5975H22.5976H22.5978H22.5979H22.598H22.5981H22.5982H22.5984H22.5985H22.5986H22.5987H22.5989H22.599H22.5991H22.5992H22.5994H22.5995H22.5996H22.5998H22.5999H22.6H22.6002H22.6003H22.6004H22.6006H22.6007H22.6008H22.601H22.6011H22.6012H22.6014H22.6015H22.6017H22.6018H22.602H22.6021H22.6022H22.6024H22.6025H22.6027H22.6028H22.603H22.6031H22.6033H22.6034H22.6036H22.6037H22.6039H22.604H22.6042H22.6043H22.6045H22.6047H22.6048H22.605H22.6051H22.6053H22.6055H22.6056H22.6058H22.6059H22.6061H22.6063H22.6064H22.6066H22.6068H22.6069H22.6071H22.6073H22.6074H22.6076H22.6078H22.608H22.6081H22.6083H22.6085H22.6087H22.6088H22.609H22.6092H22.6094H22.6096H22.6097H22.6099H22.6101H22.6103H22.6105H22.6107H22.6109H22.611H22.6112H22.6114H22.6116H22.6118H22.612H22.6122H22.6124H22.6126H22.6128H22.613H22.6132H22.6134H22.6136H22.6138H22.614H22.6142H22.6144H22.6146H22.6148H22.615H22.6152H22.6154H22.6156H22.6158H22.616H22.6162H22.6165H22.6167H22.6169H22.6171H22.6173H22.6175H22.6177H22.618H22.6182H22.6184H22.6186H22.6189H22.6191H22.6193H22.6195H22.6198H22.62H22.6202H22.6204H22.6207H22.6209H22.6211H22.6214H22.6216H22.6218H22.6221H22.6223H22.6225H22.6228H22.623H22.6233H22.6235H22.6238H22.624H22.6242H22.6245H22.6247H22.625H22.6252H22.6255H22.6257H22.626H22.6262H22.6265H22.6267H22.627H22.6273H22.6275H22.6278H22.628H22.6283H22.6286H22.6288H22.6291H22.6294H22.6296H22.6748C23.0187 18.7963 23.324 18.7565 23.6267 18.6757C24.1702 19.5121 25.4806 20.532 28.4947 21.3303L28.4947 21.3303L28.4974 21.331C28.7129 21.3816 28.861 21.5186 28.9691 21.7024L29.0097 21.7715L29.0861 21.7468C29.8405 21.5024 30.3353 21.2803 30.6545 21.1065L30.7378 21.0611L30.6969 20.9755C30.3417 20.2336 29.7502 19.7104 28.9528 19.5046ZM20.8947 16.2297L20.8948 16.2296L20.8911 16.2255C20.4353 15.7263 20.2014 14.9797 20.0949 14.2563C19.9887 13.5352 20.0113 12.8536 20.0556 12.4999L20.0564 12.5V12.4875V12.4441C20.1233 11.2009 20.5652 10.5417 21.0564 10.1893C21.5528 9.83331 22.1172 9.77781 22.4482 9.77781H22.4485H22.4487H22.449H22.4493H22.4495H22.4498H22.45H22.4503H22.4506H22.4508H22.4511H22.4514H22.4516H22.4519H22.4521H22.4524H22.4527H22.4529H22.4532H22.4535H22.4537H22.454H22.4542H22.4545H22.4548H22.455H22.4553H22.4556H22.4558H22.4561H22.4563H22.4566H22.4569H22.4571H22.4574H22.4576H22.4579H22.4582H22.4584H22.4587H22.459H22.4592H22.4595H22.4597H22.46H22.4603H22.4605H22.4608H22.461H22.4613H22.4616H22.4618H22.4621H22.4623H22.4626H22.4629H22.4631H22.4634H22.4636H22.4639H22.4642H22.4644H22.4647H22.4649H22.4652H22.4655H22.4657H22.466H22.4662H22.4665H22.4667H22.467H22.4673H22.4675H22.4678H22.468H22.4683H22.4685H22.4688H22.4691H22.4693H22.4696H22.4698H22.4701H22.4703H22.4706H22.4709H22.4711H22.4714H22.4716H22.4719H22.4721H22.4724H22.4726H22.4729H22.4732H22.4734H22.4737H22.4739H22.4742H22.4744H22.4747H22.4749H22.4752H22.4754H22.4757H22.4759H22.4762H22.4764H22.4767H22.4769H22.4772H22.4774H22.4777H22.478H22.4782H22.4785H22.4787H22.479H22.4792H22.4794H22.4797H22.4799H22.4802H22.4804H22.4807H22.4809H22.4812H22.4814H22.4817H22.4819H22.4822H22.4824H22.4827H22.4829H22.4832H22.4834H22.4837H22.4839H22.4841H22.4844H22.4846H22.4849H22.4851H22.4854H22.4856H22.4858H22.4861H22.4863H22.4866H22.4868H22.4871H22.4873H22.4875H22.4878H22.488H22.4883H22.4885H22.4887H22.489H22.4892H22.4894H22.4897H22.4899H22.4902H22.4904H22.4906H22.4909H22.4911H22.4913H22.4916H22.4918H22.492H22.4923H22.4925H22.4927H22.493H22.4932H22.4934H22.4937H22.4939H22.4941H22.4944H22.4946H22.4948H22.4951H22.4953H22.4955H22.4957H22.496H22.4962H22.4964H22.4967H22.4969H22.4971H22.4973H22.4976H22.4978H22.498H22.4982H22.4985H22.4987H22.4989H22.4991H22.4994H22.4996H22.4998H22.5H22.5002H22.5005H22.5007H22.5009H22.5011H22.5013H22.5016H22.5018H22.502H22.5022H22.5024H22.5026H22.5029H22.5031H22.5033H22.5035H22.5037H22.5039H22.5041H22.5044H22.5046H22.5048H22.505H22.5052H22.5054H22.5056H22.5058H22.506H22.5063H22.5065H22.5067H22.5069H22.5071H22.5073H22.5075H22.5077H22.5079H22.5081H22.5083H22.5085H22.5087H22.5089H22.5091H22.5093H22.5095H22.5097H22.5099H22.5101H22.5103H22.5105H22.5107H22.5109H22.5111H22.5113H22.5115H22.5117H22.5119H22.5121H22.5123H22.5125H22.5127H22.5129H22.5131H22.5132H22.5134H22.5136H22.5138H22.514H22.5142H22.5144H22.5146H22.5148H22.5149H22.5151H22.5153H22.5155H22.5157H22.5159H22.516H22.5162H22.5164H22.5166H22.5168H22.5169H22.5171H22.5173H22.5175H22.5177H22.5178H22.518H22.5182H22.5184H22.5185H22.5187H22.5189H22.5191H22.5192H22.5194H22.5196H22.5197H22.5199H22.5201H22.5202H22.5204H22.5206H22.5207H22.5209H22.5211H22.5212H22.5214H22.5216H22.5217H22.5219H22.522H22.5222H22.5224H22.5225H22.5227H22.5228H22.523H22.5232H22.5233H22.5235H22.5236H22.5238H22.5239H22.5241H22.5242H22.5244H22.5245H22.5247H22.5248H22.525H22.5251H22.5253H22.5254H22.5256H22.5257H22.5259H22.526H22.5261H22.5263H22.5264H22.5266H22.5267H22.5268H22.527H22.5271H22.5273H22.5274H22.5275H22.5277H22.5278H22.5279H22.5281H22.5282H22.5283H22.5285H22.5286H22.5287H22.5288H22.529H22.5291H22.5292H22.5294H22.5295H22.5296H22.5297H22.5298H22.53H22.5301H22.5302H22.5303H22.5304H22.5306H22.5307H22.5308H22.5309H22.531H22.5311H22.5313H22.5314H22.5315H22.5316H22.5317H22.5318H22.5319H22.532H22.5321H22.5322H22.5323H22.5324H22.5325H22.5326H22.5328H22.5329H22.533H22.5331H22.5331H22.5332H22.5333H22.5334H22.5335H22.5336H22.5337H22.5338H22.5339H22.534H22.5341H22.5342H22.5343H22.5344H22.5344H22.5345H22.5346H22.5347H22.5348H22.5349H22.5349H22.535H22.5351H22.5352H22.5353H22.5353H22.5354H22.5355H22.5356H22.5356H22.5357H22.5358H22.5359H22.5359H22.536H22.5361H22.5361H22.5362H22.5363H22.5363H22.5364H22.5365H22.5365H22.5366H22.5366H22.5367H22.5368H22.5368H22.5369H22.5369H22.537H22.537H22.5371H22.5371H22.5372H22.5372H22.5373H22.5373H22.5374H22.5374H22.5375H22.5375H22.5376H22.5376H22.5376H22.5377H22.5377H22.5378H22.5378H22.5378H22.5379H22.5379H22.5379H22.538H22.538H22.538H22.5381H22.5381H22.5381H22.5382H22.5382H22.5382H22.5382H22.5382H22.5383H22.5383H22.5383H22.5383H22.5383H22.5384H22.5384H22.5384H22.5384H22.5384H22.5384H22.5384H22.5385H22.5385H22.5385H22.5385H22.5385H22.5385H22.5385H22.5841V9.77811L22.5918 9.77751C22.8749 9.75562 23.4732 9.77812 24.0142 10.1244C24.5485 10.4664 25.0448 11.1358 25.1119 12.444V12.4875H25.111L25.1128 12.5008C25.157 12.8295 25.1687 13.4993 25.0567 14.2215C24.9444 14.9454 24.7101 15.7058 24.2741 16.2289L24.2734 16.2298C23.8904 16.6997 23.3335 16.9184 22.5845 16.9184C21.8346 16.9184 21.2782 16.6997 20.8947 16.2297Z" fill="#EE4FAF" stroke="#EE4FAF" stroke-width="0.2"/>
<path d="M18.6307 30.5373L18.6301 30.5372C16.4029 29.9799 15.4143 29.3057 15.026 28.8724L15.1651 28.7336L15.3689 28.53L15.369 28.5301L15.3727 28.526C16.1852 27.6205 16.5177 26.4189 16.6491 25.4076C16.7585 24.5654 16.7294 23.8415 16.7167 23.5237C16.7141 23.46 16.7122 23.4127 16.7122 23.3839H16.7123L16.7121 23.3788C16.62 21.584 15.9048 20.4566 15.0069 19.7861C14.114 19.1193 13.0499 18.9111 12.2624 18.9336C11.475 18.9113 10.4108 19.1195 9.51772 19.7862C8.62025 20.4563 7.90528 21.5825 7.81238 23.3752C7.78856 23.5701 7.72196 24.4017 7.85842 25.408C7.99543 26.4183 8.33885 27.6179 9.1489 28.5228C9.27022 28.6832 9.42391 28.8091 9.57457 28.9241C9.13686 29.3564 8.11152 29.9849 6.02935 30.5378C4.56059 30.9156 3.7778 32.3353 3.91565 34.2666L3.91562 34.2666L3.91588 34.2693C3.96583 34.7755 4.37339 35.1296 4.87624 35.1296H4.9218V35.1301L4.93172 35.1291C5.43423 35.079 5.84176 34.6265 5.79159 34.1147C5.76939 33.8019 5.77044 33.3973 5.86754 33.052C5.96454 32.707 6.15011 32.442 6.48506 32.3629L6.48506 32.3629L6.48632 32.3626C9.51772 31.605 10.777 30.5375 11.3554 29.7473C11.615 29.7888 11.915 29.8286 12.2165 29.8286H12.262H12.262H12.2621H12.2621H12.2621H12.2621H12.2621H12.2621H12.2621H12.2621H12.2621H12.2621H12.2621H12.2621H12.2622H12.2622H12.2622H12.2622H12.2622H12.2622H12.2622H12.2622H12.2622H12.2623H12.2623H12.2623H12.2623H12.2623H12.2623H12.2623H12.2623H12.2623H12.2623H12.2623H12.2624H12.2624H12.2624H12.2624H12.2624H12.2624H12.2624H12.2624H12.2624H12.2624H12.2625H12.2625H12.2625H12.2625H12.2625H12.2625H12.2625H12.2625H12.2626H12.2626H12.2626H12.2626H12.2626H12.2626H12.2626H12.2627H12.2627H12.2627H12.2627H12.2627H12.2627H12.2628H12.2628H12.2628H12.2628H12.2628H12.2628H12.2629H12.2629H12.2629H12.2629H12.2629H12.263H12.263H12.263H12.263H12.263H12.2631H12.2631H12.2631H12.2631H12.2631H12.2632H12.2632H12.2632H12.2632H12.2633H12.2633H12.2633H12.2633H12.2634H12.2634H12.2634H12.2634H12.2635H12.2635H12.2635H12.2635H12.2636H12.2636H12.2636H12.2637H12.2637H12.2637H12.2637H12.2638H12.2638H12.2638H12.2639H12.2639H12.2639H12.264H12.264H12.264H12.2641H12.2641H12.2641H12.2642H12.2642H12.2642H12.2643H12.2643H12.2643H12.2644H12.2644H12.2645H12.2645H12.2645H12.2646H12.2646H12.2646H12.2647H12.2647H12.2648H12.2648H12.2648H12.2649H12.2649H12.265H12.265H12.2651H12.2651H12.2651H12.2652H12.2652H12.2653H12.2653H12.2654H12.2654H12.2655H12.2655H12.2656H12.2656H12.2657H12.2657H12.2658H12.2658H12.2659H12.2659H12.266H12.266H12.2661H12.2661H12.2662H12.2662H12.2663H12.2663H12.2664H12.2665H12.2665H12.2666H12.2666H12.2667H12.2667H12.2668H12.2669H12.2669H12.267H12.267H12.2671H12.2672H12.2672H12.2673H12.2674H12.2674H12.2675H12.2675H12.2676H12.2677H12.2677H12.2678H12.2679H12.2679H12.268H12.2681H12.2682H12.2682H12.2683H12.2684H12.2684H12.2685H12.2686H12.2687H12.2687H12.2688H12.2689H12.269H12.269H12.2691H12.2692H12.2693H12.2693H12.2694H12.2695H12.2696H12.2697H12.2697H12.2698H12.2699H12.27H12.2701H12.2702H12.2702H12.2703H12.2704H12.2705H12.2706H12.2707H12.2708H12.2708H12.2709H12.271H12.2711H12.2712H12.2713H12.2714H12.2715H12.2716H12.2717H12.2718H12.2719H12.272H12.2721H12.2721H12.2722H12.2723H12.2724H12.2725H12.2726H12.2727H12.2728H12.273H12.2731H12.2732H12.2733H12.2734H12.2735H12.2736H12.2737H12.2738H12.2739H12.274H12.2741H12.2742H12.2743H12.2745H12.2746H12.2747H12.2748H12.2749H12.275H12.2751H12.2753H12.2754H12.2755H12.2756H12.2757H12.2758H12.276H12.2761H12.2762H12.2763H12.2765H12.2766H12.2767H12.2768H12.277H12.2771H12.2772H12.2773H12.2775H12.2776H12.2777H12.2779H12.278H12.2781H12.2783H12.2784H12.2785H12.2787H12.2788H12.2789H12.2791H12.2792H12.2793H12.2795H12.2796H12.2798H12.2799H12.2801H12.2802H12.2803H12.2805H12.2806H12.2808H12.2809H12.2811H12.2812H12.2814H12.2815H12.2817H12.2818H12.282H12.2821H12.2823H12.2824H12.2826H12.2828H12.2829H12.2831H12.2832H12.2834H12.2836H12.2837H12.2839H12.284H12.2842H12.2844H12.2845H12.2847H12.2849H12.285H12.2852H12.2854H12.2856H12.2857H12.2859H12.2861H12.2862H12.2864H12.2866H12.2868H12.287H12.2871H12.2873H12.2875H12.2877H12.2879H12.288H12.2882H12.2884H12.2886H12.2888H12.289H12.2891H12.2893H12.2895H12.2897H12.2899H12.2901H12.2903H12.2905H12.2907H12.2909H12.2911H12.2913H12.2915H12.2917H12.2919H12.2921H12.2923H12.2925H12.2927H12.2929H12.2931H12.2933H12.2935H12.2937H12.2939H12.2941H12.2943H12.2946H12.2948H12.295H12.2952H12.2954H12.2956H12.2959H12.2961H12.2963H12.2965H12.2967H12.297H12.2972H12.2974H12.2976H12.2979H12.2981H12.2983H12.2985H12.2988H12.299H12.2992H12.2995H12.2997H12.2999H12.3002H12.3004H12.3006H12.3009H12.3011H12.3014H12.3016H12.3018H12.3021H12.3023H12.3026H12.3028H12.3031H12.3033H12.3036H12.3038H12.3041H12.3043H12.3046H12.3048H12.3051H12.3054H12.3056H12.3059H12.3061H12.3064H12.3067H12.3069H12.3072H12.3523C12.6962 29.8286 13.0017 29.7892 13.304 29.7092C13.8478 30.5452 15.1577 31.5651 18.1721 32.3627L18.172 32.3627L18.1747 32.3633C18.5083 32.4421 18.6947 32.7166 18.7923 33.069C18.8896 33.4204 18.8905 33.8254 18.8686 34.1149C18.8178 34.6272 19.225 35.0794 19.728 35.1295L19.7279 35.13H19.7379H19.7835C20.2907 35.13 20.6927 34.7266 20.7441 34.2711L20.7442 34.2711L20.7445 34.267C20.8823 32.3348 20.1001 30.9146 18.6307 30.5373ZM9.73371 23.5326L9.73458 23.5327V23.5193V23.4773C9.80174 22.2339 10.2437 21.5743 10.735 21.2217C11.2314 20.8654 11.7958 20.8097 12.127 20.8097H12.1273H12.1276H12.1278H12.1281H12.1284H12.1286H12.1289H12.1291H12.1294H12.1297H12.1299H12.1302H12.1305H12.1307H12.131H12.1313H12.1315H12.1318H12.1321H12.1323H12.1326H12.1328H12.1331H12.1334H12.1336H12.1339H12.1342H12.1344H12.1347H12.135H12.1352H12.1355H12.1357H12.136H12.1363H12.1365H12.1368H12.1371H12.1373H12.1376H12.1379H12.1381H12.1384H12.1386H12.1389H12.1392H12.1394H12.1397H12.14H12.1402H12.1405H12.1407H12.141H12.1413H12.1415H12.1418H12.142H12.1423H12.1426H12.1428H12.1431H12.1434H12.1436H12.1439H12.1441H12.1444H12.1447H12.1449H12.1452H12.1454H12.1457H12.146H12.1462H12.1465H12.1467H12.147H12.1472H12.1475H12.1478H12.148H12.1483H12.1485H12.1488H12.1491H12.1493H12.1496H12.1498H12.1501H12.1503H12.1506H12.1509H12.1511H12.1514H12.1516H12.1519H12.1521H12.1524H12.1526H12.1529H12.1531H12.1534H12.1537H12.1539H12.1542H12.1544H12.1547H12.1549H12.1552H12.1554H12.1557H12.1559H12.1562H12.1564H12.1567H12.1569H12.1572H12.1574H12.1577H12.1579H12.1582H12.1584H12.1587H12.1589H12.1592H12.1594H12.1597H12.1599H12.1602H12.1604H12.1607H12.1609H12.1612H12.1614H12.1617H12.1619H12.1622H12.1624H12.1627H12.1629H12.1631H12.1634H12.1636H12.1639H12.1641H12.1644H12.1646H12.1648H12.1651H12.1653H12.1656H12.1658H12.1661H12.1663H12.1665H12.1668H12.167H12.1673H12.1675H12.1677H12.168H12.1682H12.1685H12.1687H12.1689H12.1692H12.1694H12.1696H12.1699H12.1701H12.1703H12.1706H12.1708H12.1711H12.1713H12.1715H12.1718H12.172H12.1722H12.1725H12.1727H12.1729H12.1731H12.1734H12.1736H12.1738H12.1741H12.1743H12.1745H12.1748H12.175H12.1752H12.1754H12.1757H12.1759H12.1761H12.1763H12.1766H12.1768H12.177H12.1772H12.1775H12.1777H12.1779H12.1781H12.1784H12.1786H12.1788H12.179H12.1792H12.1795H12.1797H12.1799H12.1801H12.1803H12.1806H12.1808H12.181H12.1812H12.1814H12.1816H12.1819H12.1821H12.1823H12.1825H12.1827H12.1829H12.1831H12.1834H12.1836H12.1838H12.184H12.1842H12.1844H12.1846H12.1848H12.185H12.1852H12.1855H12.1857H12.1859H12.1861H12.1863H12.1865H12.1867H12.1869H12.1871H12.1873H12.1875H12.1877H12.1879H12.1881H12.1883H12.1885H12.1887H12.1889H12.1891H12.1893H12.1895H12.1897H12.1899H12.1901H12.1903H12.1905H12.1907H12.1909H12.1911H12.1913H12.1914H12.1916H12.1918H12.192H12.1922H12.1924H12.1926H12.1928H12.193H12.1932H12.1933H12.1935H12.1937H12.1939H12.1941H12.1943H12.1944H12.1946H12.1948H12.195H12.1952H12.1954H12.1955H12.1957H12.1959H12.1961H12.1963H12.1964H12.1966H12.1968H12.197H12.1971H12.1973H12.1975H12.1976H12.1978H12.198H12.1982H12.1983H12.1985H12.1987H12.1988H12.199H12.1992H12.1993H12.1995H12.1997H12.1998H12.2H12.2002H12.2003H12.2005H12.2007H12.2008H12.201H12.2011H12.2013H12.2015H12.2016H12.2018H12.2019H12.2021H12.2022H12.2024H12.2025H12.2027H12.2028H12.203H12.2031H12.2033H12.2034H12.2036H12.2037H12.2039H12.204H12.2042H12.2043H12.2045H12.2046H12.2048H12.2049H12.205H12.2052H12.2053H12.2055H12.2056H12.2057H12.2059H12.206H12.2062H12.2063H12.2064H12.2066H12.2067H12.2068H12.207H12.2071H12.2072H12.2074H12.2075H12.2076H12.2077H12.2079H12.208H12.2081H12.2082H12.2084H12.2085H12.2086H12.2087H12.2088H12.209H12.2091H12.2092H12.2093H12.2094H12.2096H12.2097H12.2098H12.2099H12.21H12.2101H12.2102H12.2103H12.2105H12.2106H12.2107H12.2108H12.2109H12.211H12.2111H12.2112H12.2113H12.2114H12.2115H12.2116H12.2117H12.2118H12.2119H12.212H12.2121H12.2122H12.2123H12.2124H12.2125H12.2126H12.2127H12.2128H12.2129H12.2129H12.213H12.2131H12.2132H12.2133H12.2134H12.2135H12.2135H12.2136H12.2137H12.2138H12.2139H12.2139H12.214H12.2141H12.2142H12.2143H12.2143H12.2144H12.2145H12.2146H12.2146H12.2147H12.2148H12.2148H12.2149H12.215H12.215H12.2151H12.2152H12.2152H12.2153H12.2153H12.2154H12.2155H12.2155H12.2156H12.2156H12.2157H12.2158H12.2158H12.2159H12.2159H12.216H12.216H12.2161H12.2161H12.2162H12.2162H12.2163H12.2163H12.2163H12.2164H12.2164H12.2165H12.2165H12.2165H12.2166H12.2166H12.2167H12.2167H12.2167H12.2168H12.2168H12.2168H12.2169H12.2169H12.2169H12.2169H12.217H12.217H12.217H12.217H12.2171H12.2171H12.2171H12.2171H12.2171H12.2172H12.2172H12.2172H12.2172H12.2172H12.2172H12.2173H12.2173H12.2173H12.2173H12.2173H12.2173H12.2173H12.2629V20.81L12.2705 20.8095C12.5533 20.7878 13.1516 20.8101 13.6926 21.1563C14.2269 21.4983 14.7234 22.1679 14.7905 23.4772V23.5193H14.7896L14.7914 23.5326C14.8354 23.8617 14.8472 24.5317 14.7353 25.254C14.6231 25.978 14.3891 26.7384 13.9533 27.2617L13.9528 27.2623C13.5684 27.7313 13.0122 27.9507 12.2629 27.9507H12.2629H12.2629H12.2629H12.2628H12.2628H12.2628H12.2628H12.2628H12.2628H12.2628H12.2628H12.2628H12.2628H12.2628H12.2627H12.2627H12.2627H12.2627H12.2627H12.2627H12.2627H12.2627H12.2627H12.2626H12.2626H12.2626H12.2626H12.2626H12.2626H12.2626H12.2626H12.2626H12.2626H12.2626H12.2625H12.2625H12.2625H12.2625H12.2625H12.2625H12.2625H12.2625H12.2625H12.2625H12.2624H12.2624H12.2624H12.2624H12.2624H12.2624H12.2624H12.2623H12.2623H12.2623H12.2623H12.2623H12.2623H12.2623H12.2622H12.2622H12.2622H12.2622H12.2622H12.2622H12.2622H12.2621H12.2621H12.2621H12.2621H12.2621H12.262H12.262H12.262H12.262H12.262H12.2619H12.2619H12.2619H12.2619H12.2619H12.2618H12.2618H12.2618H12.2618H12.2618H12.2617H12.2617H12.2617H12.2617H12.2616H12.2616H12.2616H12.2616H12.2615H12.2615H12.2615H12.2615H12.2614H12.2614H12.2614H12.2614H12.2613H12.2613H12.2613H12.2612H12.2612H12.2612H12.2612H12.2611H12.2611H12.2611H12.261H12.261H12.261H12.2609H12.2609H12.2609H12.2608H12.2608H12.2608H12.2607H12.2607H12.2607H12.2606H12.2606H12.2606H12.2605H12.2605H12.2604H12.2604H12.2604H12.2603H12.2603H12.2602H12.2602H12.2602H12.2601H12.2601H12.26H12.26H12.26H12.2599H12.2599H12.2598H12.2598H12.2597H12.2597H12.2596H12.2596H12.2596H12.2595H12.2595H12.2594H12.2594H12.2593H12.2593H12.2592H12.2592H12.2591H12.2591H12.259H12.259H12.2589H12.2589H12.2588H12.2588H12.2587H12.2586H12.2586H12.2585H12.2585H12.2584H12.2584H12.2583H12.2582H12.2582H12.2581H12.2581H12.258H12.258H12.2579H12.2578H12.2578H12.2577H12.2576H12.2576H12.2575H12.2575H12.2574H12.2573H12.2573H12.2572H12.2571H12.2571H12.257H12.2569H12.2568H12.2568H12.2567H12.2566H12.2566H12.2565H12.2564H12.2563H12.2563H12.2562H12.2561H12.2561H12.256H12.2559H12.2558H12.2557H12.2557H12.2556H12.2555H12.2554H12.2554H12.2553H12.2552H12.2551H12.255H12.2549H12.2549H12.2548H12.2547H12.2546H12.2545H12.2544H12.2543H12.2543H12.2542H12.2541H12.254H12.2539H12.2538H12.2537H12.2536H12.2535H12.2534H12.2533H12.2533H12.2532H12.2531H12.253H12.2529H12.2528H12.2527H12.2526H12.2525H12.2524H12.2523H12.2522H12.2521H12.252H12.2519H12.2518H12.2517H12.2516H12.2514H12.2513H12.2512H12.2511H12.251H12.2509H12.2508H12.2507H12.2506H12.2505H12.2503H12.2502H12.2501H12.25H12.2499H12.2498H12.2497H12.2495H12.2494H12.2493H12.2492H12.2491H12.2489H12.2488H12.2487H12.2486H12.2485H12.2483H12.2482H12.2481H12.248H12.2478H12.2477H12.2476H12.2474H12.2473H12.2472H12.247H12.2469H12.2468H12.2466H12.2465H12.2464H12.2462H12.2461H12.246H12.2458H12.2457H12.2456H12.2454H12.2453H12.2451H12.245H12.2448H12.2447H12.2445H12.2444H12.2443H12.2441H12.244H12.2438H12.2437H12.2435H12.2434H12.2432H12.2431H12.2429H12.2427H12.2426H12.2424H12.2423H12.2421H12.242H12.2418H12.2416H12.2415H12.2413H12.2412H12.241H12.2408H12.2407H12.2405H12.2403H12.2402H12.24H12.2398H12.2397H12.2395H12.2393H12.2391H12.239H12.2388H12.2386H12.2384H12.2383H12.2381H12.2379H12.2377H12.2376H12.2374H12.2372H12.237H12.2368H12.2366H12.2365H12.2363H12.2361H12.2359H12.2357H12.2355H12.2353H12.2351H12.2349H12.2347H12.2346H12.2344H12.2342H12.234H12.2338H12.2336H12.2334H12.2332H12.233H12.2328H12.2326H12.2324H12.2322H12.2319H12.2317H12.2315H12.2313H12.2311H12.2309H12.2307H12.2305H12.2303H12.2301H12.2298H12.2296H12.2294H12.2292H12.229H12.2287H12.2285H12.2283H12.2281H12.2279H12.2276H12.2274H12.2272H12.227H12.2267H12.2265H12.2263H12.226H12.2258H12.2256H12.2253H12.2251H12.2249H12.2246H12.2244H12.2242H12.2239H12.2237H12.2234H12.2232H12.2229H12.2227H12.2225H12.2222H12.222H12.2217H12.2215H12.2212H12.221H12.2207H12.2204H12.2202H12.2199H12.2197H12.2194H12.2192H12.2189H12.2186H12.2184H12.2181H12.2178H12.2176H12.2173C11.4718 27.9507 10.9568 27.7341 10.5258 27.2601C10.0912 26.7377 9.86845 25.979 9.76754 25.2558C9.6668 24.5339 9.68957 23.8633 9.73371 23.5326Z" fill="#801E5A" stroke="#801E5A" stroke-width="0.2"/>
<path d="M39.8188 30.4913L39.818 30.4911C37.5906 29.9337 36.6022 29.2595 36.2144 28.8267C36.2602 28.7806 36.3062 28.7346 36.3522 28.6885L36.3527 28.688L36.3529 28.6879C36.4206 28.6199 36.4886 28.5519 36.5563 28.4837L36.5564 28.4838L36.5598 28.48C37.3723 27.5748 37.7049 26.3732 37.8363 25.362C37.9458 24.5197 37.9168 23.7958 37.904 23.4781C37.9015 23.4144 37.8996 23.3671 37.8996 23.3383H37.8997L37.8994 23.3332C37.8075 21.5387 37.0924 20.4114 36.1945 19.7409C35.3016 19.0741 34.2374 18.866 33.45 18.8884C32.6628 18.8662 31.5987 19.0743 30.7057 19.741C29.8083 20.411 29.0932 21.5372 29.0001 23.3297C28.9766 23.5243 28.9099 24.356 29.0463 25.3624C29.1832 26.3726 29.5266 27.572 30.3368 28.4767C30.4578 28.6377 30.612 28.764 30.7631 28.879C30.3257 29.3112 29.2998 29.9389 27.2167 30.4919C25.7481 30.8715 24.966 32.2897 25.1034 34.2214L25.1034 34.2214L25.1037 34.2243C25.1545 34.7303 25.5611 35.084 26.0644 35.084H26.1096V35.0845L26.1194 35.0836C26.6229 35.0339 27.0299 34.5808 26.9793 34.0686C26.9574 33.7558 26.9584 33.3513 27.0554 33.0061C27.1523 32.6612 27.3377 32.3962 27.6725 32.3169L27.6725 32.3169L27.674 32.3165C30.6589 31.5603 31.9641 30.5363 32.5452 29.7017C32.8045 29.7438 33.1033 29.7834 33.4049 29.7834H33.4496H33.4496H33.4496H33.4496H33.4496H33.4496H33.4496H33.4496H33.4496H33.4497H33.4497H33.4497H33.4497H33.4497H33.4497H33.4497H33.4497H33.4497H33.4497H33.4498H33.4498H33.4498H33.4498H33.4498H33.4498H33.4498H33.4498H33.4498H33.4498H33.4499H33.4499H33.4499H33.4499H33.4499H33.4499H33.4499H33.4499H33.4499H33.4499H33.4499H33.45H33.45H33.45H33.45H33.45H33.45H33.45H33.45H33.4501H33.4501H33.4501H33.4501H33.4501H33.4501H33.4501H33.4501H33.4502H33.4502H33.4502H33.4502H33.4502H33.4502H33.4503H33.4503H33.4503H33.4503H33.4503H33.4503H33.4504H33.4504H33.4504H33.4504H33.4504H33.4504H33.4505H33.4505H33.4505H33.4505H33.4505H33.4506H33.4506H33.4506H33.4506H33.4506H33.4507H33.4507H33.4507H33.4507H33.4508H33.4508H33.4508H33.4508H33.4509H33.4509H33.4509H33.4509H33.451H33.451H33.451H33.451H33.4511H33.4511H33.4511H33.4511H33.4512H33.4512H33.4512H33.4513H33.4513H33.4513H33.4514H33.4514H33.4514H33.4514H33.4515H33.4515H33.4515H33.4516H33.4516H33.4516H33.4517H33.4517H33.4517H33.4518H33.4518H33.4519H33.4519H33.4519H33.452H33.452H33.452H33.4521H33.4521H33.4522H33.4522H33.4522H33.4523H33.4523H33.4524H33.4524H33.4524H33.4525H33.4525H33.4526H33.4526H33.4527H33.4527H33.4527H33.4528H33.4528H33.4529H33.4529H33.453H33.453H33.4531H33.4531H33.4532H33.4532H33.4533H33.4533H33.4534H33.4534H33.4535H33.4535H33.4536H33.4536H33.4537H33.4537H33.4538H33.4538H33.4539H33.4539H33.454H33.4541H33.4541H33.4542H33.4542H33.4543H33.4543H33.4544H33.4545H33.4545H33.4546H33.4546H33.4547H33.4548H33.4548H33.4549H33.455H33.455H33.4551H33.4552H33.4552H33.4553H33.4554H33.4554H33.4555H33.4556H33.4556H33.4557H33.4558H33.4558H33.4559H33.456H33.4561H33.4561H33.4562H33.4563H33.4563H33.4564H33.4565H33.4566H33.4566H33.4567H33.4568H33.4569H33.457H33.457H33.4571H33.4572H33.4573H33.4574H33.4574H33.4575H33.4576H33.4577H33.4578H33.4579H33.458H33.458H33.4581H33.4582H33.4583H33.4584H33.4585H33.4586H33.4587H33.4588H33.4588H33.4589H33.459H33.4591H33.4592H33.4593H33.4594H33.4595H33.4596H33.4597H33.4598H33.4599H33.46H33.4601H33.4602H33.4603H33.4604H33.4605H33.4606H33.4607H33.4608H33.4609H33.461H33.4611H33.4612H33.4613H33.4614H33.4616H33.4617H33.4618H33.4619H33.462H33.4621H33.4622H33.4623H33.4625H33.4626H33.4627H33.4628H33.4629H33.463H33.4632H33.4633H33.4634H33.4635H33.4636H33.4638H33.4639H33.464H33.4641H33.4642H33.4644H33.4645H33.4646H33.4648H33.4649H33.465H33.4651H33.4653H33.4654H33.4655H33.4657H33.4658H33.4659H33.4661H33.4662H33.4663H33.4665H33.4666H33.4668H33.4669H33.467H33.4672H33.4673H33.4675H33.4676H33.4677H33.4679H33.468H33.4682H33.4683H33.4685H33.4686H33.4688H33.4689H33.4691H33.4692H33.4694H33.4695H33.4697H33.4698H33.47H33.4701H33.4703H33.4705H33.4706H33.4708H33.4709H33.4711H33.4713H33.4714H33.4716H33.4718H33.4719H33.4721H33.4723H33.4724H33.4726H33.4728H33.4729H33.4731H33.4733H33.4734H33.4736H33.4738H33.474H33.4741H33.4743H33.4745H33.4747H33.4749H33.475H33.4752H33.4754H33.4756H33.4758H33.4759H33.4761H33.4763H33.4765H33.4767H33.4769H33.4771H33.4773H33.4775H33.4776H33.4778H33.478H33.4782H33.4784H33.4786H33.4788H33.479H33.4792H33.4794H33.4796H33.4798H33.48H33.4802H33.4804H33.4806H33.4808H33.4811H33.4813H33.4815H33.4817H33.4819H33.4821H33.4823H33.4825H33.4827H33.483H33.4832H33.4834H33.4836H33.4838H33.4841H33.4843H33.4845H33.4847H33.4849H33.4852H33.4854H33.4856H33.4859H33.4861H33.4863H33.4865H33.4868H33.487H33.4872H33.4875H33.4877H33.488H33.4882H33.4884H33.4887H33.4889H33.4892H33.4894H33.4896H33.4899H33.4901H33.4904H33.4906H33.4909H33.4911H33.4914H33.4916H33.4919H33.4921H33.4924H33.4926H33.4929H33.4932H33.4934H33.4937H33.4939H33.4942H33.4945H33.4947H33.5403C33.8836 29.7834 34.1895 29.7441 34.4916 29.6634C35.0351 30.4998 36.3453 31.5196 39.3594 32.3175L39.3594 32.3176L39.3621 32.3182C39.6959 32.3968 39.8823 32.6712 39.9798 33.0235C40.0771 33.3749 40.078 33.7798 40.0563 34.0688C40.0056 34.5815 40.4126 35.0343 40.9158 35.084L40.9158 35.0845H40.9257H40.9704C41.4774 35.0845 41.8807 34.6807 41.9306 34.2257L41.9307 34.2257L41.931 34.2219C42.0706 32.2891 41.2876 30.8707 39.8188 30.4913ZM31.7606 27.2169L31.7608 27.2168L31.757 27.2127C31.3012 26.7135 31.0674 25.9669 30.9608 25.2435C30.8545 24.5224 30.877 23.8406 30.9212 23.487L30.9219 23.4871V23.4746V23.4313C30.9893 22.1882 31.4314 21.5288 31.9227 21.1763C32.4192 20.8202 32.9836 20.7646 33.3146 20.7646H33.3148H33.3151H33.3154H33.3156H33.3159H33.3162H33.3164H33.3167H33.317H33.3172H33.3175H33.3178H33.318H33.3183H33.3185H33.3188H33.3191H33.3193H33.3196H33.3199H33.3201H33.3204H33.3207H33.3209H33.3212H33.3215H33.3217H33.322H33.3222H33.3225H33.3228H33.323H33.3233H33.3236H33.3238H33.3241H33.3244H33.3246H33.3249H33.3251H33.3254H33.3257H33.3259H33.3262H33.3265H33.3267H33.327H33.3272H33.3275H33.3278H33.328H33.3283H33.3286H33.3288H33.3291H33.3293H33.3296H33.3299H33.3301H33.3304H33.3307H33.3309H33.3312H33.3314H33.3317H33.332H33.3322H33.3325H33.3327H33.333H33.3333H33.3335H33.3338H33.334H33.3343H33.3346H33.3348H33.3351H33.3353H33.3356H33.3359H33.3361H33.3364H33.3366H33.3369H33.3371H33.3374H33.3377H33.3379H33.3382H33.3384H33.3387H33.3389H33.3392H33.3395H33.3397H33.34H33.3402H33.3405H33.3407H33.341H33.3412H33.3415H33.3418H33.342H33.3423H33.3425H33.3428H33.343H33.3433H33.3435H33.3438H33.344H33.3443H33.3445H33.3448H33.345H33.3453H33.3455H33.3458H33.346H33.3463H33.3465H33.3468H33.347H33.3473H33.3475H33.3478H33.348H33.3483H33.3485H33.3488H33.349H33.3493H33.3495H33.3498H33.35H33.3503H33.3505H33.3508H33.351H33.3513H33.3515H33.3517H33.352H33.3522H33.3525H33.3527H33.353H33.3532H33.3535H33.3537H33.3539H33.3542H33.3544H33.3547H33.3549H33.3551H33.3554H33.3556H33.3559H33.3561H33.3563H33.3566H33.3568H33.3571H33.3573H33.3575H33.3578H33.358H33.3582H33.3585H33.3587H33.3589H33.3592H33.3594H33.3596H33.3599H33.3601H33.3603H33.3606H33.3608H33.361H33.3613H33.3615H33.3617H33.362H33.3622H33.3624H33.3627H33.3629H33.3631H33.3633H33.3636H33.3638H33.364H33.3643H33.3645H33.3647H33.3649H33.3652H33.3654H33.3656H33.3658H33.3661H33.3663H33.3665H33.3667H33.3669H33.3672H33.3674H33.3676H33.3678H33.368H33.3683H33.3685H33.3687H33.3689H33.3691H33.3694H33.3696H33.3698H33.37H33.3702H33.3704H33.3706H33.3709H33.3711H33.3713H33.3715H33.3717H33.3719H33.3721H33.3723H33.3726H33.3728H33.373H33.3732H33.3734H33.3736H33.3738H33.374H33.3742H33.3744H33.3746H33.3748H33.375H33.3752H33.3755H33.3757H33.3759H33.3761H33.3763H33.3765H33.3767H33.3769H33.3771H33.3773H33.3775H33.3777H33.3779H33.378H33.3782H33.3784H33.3786H33.3788H33.379H33.3792H33.3794H33.3796H33.3798H33.38H33.3802H33.3804H33.3806H33.3807H33.3809H33.3811H33.3813H33.3815H33.3817H33.3819H33.3821H33.3822H33.3824H33.3826H33.3828H33.383H33.3832H33.3833H33.3835H33.3837H33.3839H33.3841H33.3842H33.3844H33.3846H33.3848H33.3849H33.3851H33.3853H33.3855H33.3856H33.3858H33.386H33.3862H33.3863H33.3865H33.3867H33.3868H33.387H33.3872H33.3873H33.3875H33.3877H33.3878H33.388H33.3882H33.3883H33.3885H33.3886H33.3888H33.389H33.3891H33.3893H33.3894H33.3896H33.3898H33.3899H33.3901H33.3902H33.3904H33.3905H33.3907H33.3908H33.391H33.3911H33.3913H33.3915H33.3916H33.3917H33.3919H33.392H33.3922H33.3923H33.3925H33.3926H33.3928H33.3929H33.3931H33.3932H33.3933H33.3935H33.3936H33.3938H33.3939H33.394H33.3942H33.3943H33.3944H33.3946H33.3947H33.3948H33.395H33.3951H33.3952H33.3954H33.3955H33.3956H33.3957H33.3959H33.396H33.3961H33.3963H33.3964H33.3965H33.3966H33.3967H33.3969H33.397H33.3971H33.3972H33.3973H33.3975H33.3976H33.3977H33.3978H33.3979H33.398H33.3981H33.3983H33.3984H33.3985H33.3986H33.3987H33.3988H33.3989H33.399H33.3991H33.3992H33.3993H33.3994H33.3995H33.3996H33.3997H33.3998H33.3999H33.4H33.4001H33.4002H33.4003H33.4004H33.4005H33.4006H33.4007H33.4008H33.4009H33.401H33.401H33.4011H33.4012H33.4013H33.4014H33.4015H33.4016H33.4016H33.4017H33.4018H33.4019H33.402H33.402H33.4021H33.4022H33.4023H33.4023H33.4024H33.4025H33.4026H33.4026H33.4027H33.4028H33.4028H33.4029H33.403H33.403H33.4031H33.4032H33.4032H33.4033H33.4034H33.4034H33.4035H33.4035H33.4036H33.4036H33.4037H33.4038H33.4038H33.4039H33.4039H33.404H33.404H33.4041H33.4041H33.4042H33.4042H33.4043H33.4043H33.4043H33.4044H33.4044H33.4045H33.4045H33.4045H33.4046H33.4046H33.4047H33.4047H33.4047H33.4048H33.4048H33.4048H33.4049H33.4049H33.4049H33.4049H33.405H33.405H33.405H33.405H33.4051H33.4051H33.4051H33.4051H33.4051H33.4051H33.4052H33.4052H33.4052H33.4052H33.4052H33.4052H33.4052H33.4052H33.4053H33.4053H33.4053H33.45V20.7649L33.4577 20.7643C33.7404 20.7424 34.3388 20.7649 34.8801 21.1113C35.4147 21.4533 35.9114 22.1228 35.9787 23.4312V23.4746H35.9778L35.9796 23.4877C36.0231 23.8165 36.0347 24.4862 35.9226 25.2084C35.8103 25.9321 35.5762 26.6926 35.1404 27.2162L35.1398 27.2169C34.7568 27.6865 34.2003 27.9051 33.45 27.9051C32.7002 27.9051 32.1441 27.6865 31.7606 27.2169Z" fill="#801E5A" stroke="#801E5A" stroke-width="0.2"/>
<rect x="4" y="34" width="17" height="2" rx="1" fill="#801E5A"/>
<rect x="25" y="34" width="17" height="2" rx="1" fill="#801E5A"/>
</svg>
