<svg xmlns="http://www.w3.org/2000/svg" viewBox="0 0 291.319 291.319"><path d="M145.659 0c80.45 0 145.66 65.219 145.66 145.66s-65.21 145.659-145.66 145.659S0 226.1 0 145.66 65.21 0 145.659 0z" fill="#c4302b"/><path d="M142.145 118.357c4.606 0 8.212-1.466 10.852-3.55 2.622-2.094 3.933-4.943 3.933-8.603V84.118c0-3.25-1.338-5.936-4.006-8.002-2.686-2.067-6.118-3.095-10.324-3.095-4.597 0-8.275.974-10.997 2.931-2.731 1.966-4.097 4.588-4.097 7.911v22.158c0 3.641 1.329 6.518 3.987 8.676s6.219 3.66 10.652 3.66zm-4.815-33.419c0-.838.437-1.511 1.302-2.048.874-.519 2.003-.774 3.387-.774 1.511 0 2.731.255 3.651.774.929.537 1.384 1.211 1.384 2.048v20.993c0 1.038-.455 1.857-1.366 2.449-.91.583-2.13.883-3.669.883-1.502 0-2.667-.282-3.478-.874-.801-.574-1.211-1.393-1.211-2.458V84.938zm35.295 33.392c1.62 0 3.268-.929 4.98-1.857 1.73-.947 3.377-2.331 4.962-4.133v4.907h8.603v-44.29h-8.603v33.62a12.2 12.2 0 0 1-2.649 2.376c-.974.619-1.775.938-2.403.938-.81 0-1.402-.228-1.748-.71-.364-.464-.564-1.22-.564-2.258V72.966h-8.585v37.007c0 2.64.519 4.616 1.511 5.927 1.009 1.319 2.502 2.43 4.496 2.43zm25.017 18.308H93.677c-16.532 0-29.924 12.882-29.924 28.75v24.307c0 15.877 13.392 28.759 29.924 28.759h103.964c16.523 0 29.924-12.882 29.924-28.759v-24.307c.001-15.869-13.4-28.75-29.923-28.75zm-88.498 24.671H99.95v38.072h-8.894v-38.072h-9.195v-6.491h27.284l-.001 6.491zm27.439 38.6h-9.586v-3.951c-1.784 1.457-3.614 2.576-5.544 3.323-1.903.783-3.76 1.156-5.562 1.156-2.221 0-3.878-.537-5.007-1.62-1.111-1.065-1.684-2.667-1.684-4.807v-30.06h9.586v27.575c0 .856.2 1.457.583 1.839.419.391 1.083.564 1.976.564.692 0 1.602-.246 2.676-.756a12.29 12.29 0 0 0 2.977-1.93V163.94h9.586l-.001 35.969zm36.287-6.846c0 2.358-.747 4.151-2.23 5.417-1.466 1.265-3.632 1.884-6.427 1.884-1.866 0-3.523-.237-4.962-.719a12.478 12.478 0 0 1-4.051-2.258v2.549h-9.568v-45.118h9.568v14.539c1.293-1.001 2.649-1.784 4.06-2.312a12.461 12.461 0 0 1 4.37-.792c2.995 0 5.28.701 6.855 2.112 1.593 1.42 2.385 3.505 2.385 6.227v18.471zm36.47-10.151h-17.661v6.5c0 1.812.291 3.068.901 3.778.619.701 1.666 1.047 3.132 1.047 1.548 0 2.604-.3 3.223-.892.601-.601.929-1.903.929-3.942v-1.566h9.495v1.766c0 3.532-1.138 6.191-3.487 7.984-2.312 1.784-5.772 2.676-10.369 2.676-4.142 0-7.401-.947-9.777-2.84-2.367-1.875-3.569-4.497-3.569-7.811v-15.495c0-2.977 1.311-5.435 3.933-7.319 2.613-1.875 5.963-2.813 10.105-2.813 4.224 0 7.474.874 9.75 2.613 2.267 1.739 3.396 4.251 3.396 7.511l-.001 8.803zm-105.348-64.454h10.861V91.993l12.645-37.325h-11.043l-6.719 25.509h-.692l-7.046-25.509H91.046l12.945 38.518.001 25.272zm55.168 53.074l-2.012.328-1.957 1.011v20.738c.765.537 1.52.947 2.249 1.174l2.285.355c1.165 0 2.012-.228 2.558-.71.537-.464.819-1.229.819-2.276v-17.197c0-1.138-.319-1.985-.992-2.558-.692-.573-1.666-.865-2.95-.865z" fill="#fff"/><path d="M196.222 170.021c-1.475 0-2.522.31-3.168.947-.637.61-.947 1.648-.947 3.095v3.478h8.166v-3.478c0-1.447-.337-2.476-.974-3.095-.629-.637-1.675-.947-3.077-.947z" fill="#fff"/></svg>