<svg width="38" height="38" fill="none" xmlns="http://www.w3.org/2000/svg"><path fill-rule="evenodd" clip-rule="evenodd" d="M36.86 8.485c.464 3.394.696 6.804.696 10.23 0 3.22-.205 6.44-.615 9.66l-.09.69a9.096 9.096 0 01-7.78 7.78c-3.463.474-6.91.71-10.346.71-3.194 0-6.384-.204-9.552-.61l-.682-.09a9.095 9.095 0 01-7.779-7.778A75.401 75.401 0 01.61 9.165l.091-.683A9.095 9.095 0 018.48.705 75.843 75.843 0 0118.78 0c3.205 0 6.41.205 9.615.615l.687.09a9.096 9.096 0 017.778 7.78z" fill="#531DAB"/><mask id="a" maskUnits="userSpaceOnUse" x="6" y="6" width="25" height="25"><path d="M18.694 27.957l-5.628 2.131a1.995 1.995 0 01-2.7-1.961l.288-6.011-3.766-4.695a1.995 1.995 0 011.031-3.174l5.806-1.584 3.3-5.032a1.997 1.997 0 013.337 0l3.3 5.032 5.806 1.584a1.994 1.994 0 011.032 3.174l-3.766 4.694.287 6.01a1.997 1.997 0 01-2.699 1.962l-5.628-2.13z" fill="#fff"/></mask><g mask="url(#a)"><path d="M18.694 27.957l-5.628 2.131a1.995 1.995 0 01-2.7-1.961l.288-6.011-3.766-4.695a1.995 1.995 0 011.031-3.174l5.806-1.584 3.3-5.032a1.997 1.997 0 013.337 0l3.3 5.032 5.806 1.584a1.994 1.994 0 011.032 3.174l-3.766 4.694.287 6.01a1.997 1.997 0 01-2.699 1.962l-5.628-2.13z" fill="#FFC90D"/><path d="M6.418 28.067c5.145.152 10.078-1.799 14.8-5.852 4.72-4.053 7.015-9.214 6.883-15.484H6.42v21.336z" fill="#FFD74B"/></g><path d="M5.64 8.908a.239.239 0 01-.22-.147c-.468-1.13-.813-1.474-1.943-1.942a.24.24 0 010-.44c1.13-.468 1.475-.813 1.943-1.943a.239.239 0 01.44 0c.468 1.13.813 1.475 1.943 1.943a.239.239 0 010 .44c-1.13.468-1.475.813-1.943 1.942a.237.237 0 01-.22.147zm24.47 1.39a.142.142 0 01-.135-.09c-.286-.688-.496-.899-1.185-1.184a.145.145 0 010-.268c.69-.285.9-.496 1.185-1.185a.146.146 0 01.215-.065.145.145 0 01.053.065c.285.69.496.9 1.185 1.185a.145.145 0 010 .268c-.69.285-.9.496-1.185 1.185a.147.147 0 01-.134.09v-.001zm-21.034.019a.117.117 0 01-.107-.072c-.228-.551-.397-.72-.948-.948a.116.116 0 01-.07-.107c0-.047.027-.09.07-.107.551-.229.72-.397.948-.948a.116.116 0 01.214 0c.23.551.397.72.948.948.044.018.072.06.072.107s-.028.09-.072.107c-.55.228-.72.397-.948.948a.117.117 0 01-.107.072z" fill="#FFD00D"/></svg>