<svg width="45" height="45" viewBox="0 0 45 45" fill="none" xmlns="http://www.w3.org/2000/svg">
<path fill-rule="evenodd" clip-rule="evenodd" d="M16.1309 12.0846C17.0036 11.8681 17.772 12.0764 18.3026 12.6029C18.6284 12.9262 19.0806 13.4274 19.097 14.1397C19.1132 14.8484 18.6973 15.5108 18.0239 16.1791C17.4991 16.6999 17.0185 17.5236 16.8108 18.3779C16.6018 19.2373 16.6968 19.9896 17.106 20.506C17.5436 21.0582 18.3581 21.429 19.2862 21.5838C20.228 21.7409 21.0484 21.637 21.3863 21.4779C22.4568 20.9741 23.3985 20.5754 24.4685 20.7256C24.7249 20.7616 24.9877 20.8906 25.1751 20.9909C25.3933 21.1077 25.6419 21.2607 25.9029 21.4319C26.4264 21.7752 27.0455 22.2219 27.6524 22.6744C28.2613 23.1284 28.8676 23.5954 29.367 23.982C29.4682 24.0603 29.5644 24.1349 29.6549 24.2051C30.0184 24.4868 30.2914 24.6984 30.435 24.8037C30.4794 24.8362 30.531 24.8737 30.5885 24.9155C31.0058 25.219 31.7399 25.7528 32.3709 26.3094C32.7271 26.6237 33.0856 26.9753 33.341 27.3225C33.4684 27.4958 33.5928 27.698 33.6699 27.9184C33.7466 28.1377 33.7982 28.4397 33.681 28.7567C33.5336 29.1555 33.2516 29.5257 32.9218 29.7995C32.5978 30.0685 32.1396 30.3157 31.6132 30.3202C31.018 30.3254 30.4606 30.0715 30.0192 29.7795L28.1149 30.9541C27.9984 31.0259 27.8864 31.1116 27.7343 31.2279L27.7152 31.2426C27.5659 31.3568 27.3758 31.5014 27.1599 31.6256C26.2319 32.1594 24.9905 32.1364 24.0764 31.4664L24.0677 31.4599L23.4446 30.9763C22.0877 32.0898 20.1634 32.342 18.5905 31.1943L18.5674 31.1774L12.9195 26.389C12.1355 26.3697 11.5006 25.7535 11.481 24.9841L11.293 17.6146C11.2916 17.5583 11.2889 17.454 11.3026 17.3394C11.3617 16.8448 11.6922 15.5508 13.4041 13.8517C14.3954 12.8678 15.3034 12.2899 16.1309 12.0846ZM29.856 29.6662L30.3266 29.0491L29.8543 29.6649C29.8548 29.6653 29.8554 29.6658 29.856 29.6662ZM30.7973 28.4321C31.1495 28.6879 31.4327 28.7833 31.5992 28.7818C31.6306 28.7815 31.7444 28.7571 31.9003 28.6277C32.0055 28.5404 32.0889 28.4381 32.1438 28.3457C32.1253 28.3136 32.0984 28.2716 32.0601 28.2195C31.9027 28.0054 31.6419 27.7403 31.3136 27.4507C30.7434 26.9476 30.0753 26.4613 29.6524 26.1535C29.5924 26.1099 29.5374 26.0698 29.4882 26.0338C29.3258 25.9147 29.0281 25.684 28.6622 25.4004C28.5742 25.3321 28.4822 25.2608 28.3872 25.1873C27.8894 24.8019 27.2923 24.342 26.6953 23.8969C26.0964 23.4504 25.5071 23.0259 25.0235 22.7088C24.7809 22.5497 24.5762 22.4251 24.417 22.3399C24.2807 22.2669 24.2222 22.2475 24.2205 22.2453C23.6946 22.1785 23.1637 22.3495 22.0711 22.8637C21.3193 23.2175 20.1252 23.2845 19.0206 23.1003C17.9023 22.9138 16.6386 22.431 15.8589 21.4471C15.0507 20.4273 15.0063 19.1355 15.2768 18.0227C15.5486 16.9048 16.1664 15.8282 16.8998 15.1004C17.4845 14.52 17.5225 14.2458 17.5208 14.1741C17.5193 14.1058 17.4818 13.9827 17.1785 13.6817C17.0801 13.584 16.9048 13.4801 16.5194 13.5757C16.0888 13.6825 15.4241 14.0411 14.5282 14.9303C13.0461 16.4013 12.8849 17.3838 12.8687 17.5158C12.8687 17.5169 12.8685 17.5199 12.8684 17.5251C12.8683 17.5366 12.8684 17.5517 12.8691 17.5787L13.0547 24.8541C13.3756 24.8748 13.6818 24.9973 13.9259 25.2042L19.5562 29.9778C20.5029 30.6532 21.6976 30.5054 22.5915 29.6561C22.9312 29.3333 23.4753 29.2035 23.9601 29.4413C24.0319 29.4766 24.0999 29.519 24.1628 29.5679L25.0308 30.2417C25.411 30.5154 25.956 30.5322 26.3594 30.3002C26.4741 30.2342 26.5888 30.1493 26.7428 30.0316C26.754 30.023 26.7655 30.0142 26.7772 30.0052C26.9137 29.9007 27.0856 29.769 27.2726 29.6536L29.3419 28.3772C29.792 28.0996 30.3707 28.1215 30.7973 28.4321ZM5 19.6672C5 18.2671 6.16308 17.1321 7.59782 17.1321C9.03256 17.1321 10.1956 18.2671 10.1956 19.6672V25.6248C10.1956 26.9152 9.05259 27.8503 7.78302 27.8503C6.246 27.8503 5 26.6344 5 25.1344V19.6672ZM7.59782 18.6706C7.03377 18.6706 6.57652 19.1168 6.57652 19.6672V25.1344C6.57652 25.7847 7.11669 26.3118 7.78302 26.3118C8.3104 26.3118 8.61912 25.9453 8.61912 25.6248V19.6672C8.61912 19.1168 8.16187 18.6706 7.59782 18.6706Z" fill="#700044"/>
<path fill-rule="evenodd" clip-rule="evenodd" d="M23.8735 12.5966C24.358 12.205 24.9695 12 25.5887 12H29.331C29.5346 12 29.7165 12.0612 29.841 12.1125C29.9767 12.1685 30.1119 12.2417 30.2384 12.3184C30.4917 12.4721 30.7655 12.6741 31.0267 12.8833C31.5502 13.3028 32.0869 13.803 32.4161 14.1449C32.501 14.2331 32.6052 14.3305 32.7237 14.4336C33.6928 15.2767 34.4357 16.51 34.4557 17.9461L34.5605 25.4872C34.5672 25.9718 34.2747 26.3214 33.9579 26.4745C33.6477 26.6245 33.2347 26.63 32.8912 26.3758L33.3393 25.7211L32.8707 26.3601L26.9382 21.6579C25.7795 20.7395 25.6217 18.8577 26.9493 17.9086C27.0717 17.8211 27.0931 17.7598 27.0963 17.7502C27.1003 17.7381 27.1057 17.7132 27.0908 17.6633C27.0744 17.6084 27.0375 17.5409 26.9811 17.4797C26.9229 17.4165 26.8721 17.3903 26.8561 17.3846C26.7867 17.3602 26.5951 17.354 26.2912 17.4568C26.0069 17.553 25.7614 17.6985 25.6536 17.7859L25.6401 17.7969L22.2373 20.3145C22.2111 20.3344 22.1862 20.3506 22.164 20.3638C21.5547 20.8255 20.7907 21.0806 20.0475 21.0732C19.2708 21.0654 18.4534 20.7649 17.9038 20.0273C17.6076 19.6298 17.4747 19.1818 17.5043 18.7202C17.5323 18.2816 17.7025 17.8942 17.9 17.5772C18.2853 16.9589 18.9011 16.4139 19.3767 16.0144C19.4215 15.9768 20.2881 15.3147 20.301 15.3049L23.8735 12.5966ZM33 24.4416L32.91 17.9693C32.8982 17.1164 32.4513 16.2921 31.7317 15.6662C31.5903 15.5431 31.45 15.4132 31.3238 15.2821C31.0399 14.9873 30.5529 14.5326 30.0831 14.1563C29.8476 13.9676 29.6324 13.8115 29.4594 13.7065C29.3738 13.6546 29.312 13.6235 29.2727 13.6071H25.5887C25.2877 13.6071 25.0135 13.7089 24.8174 13.8694L24.8062 13.8785L21.2118 16.6035C21.2118 16.6035 21.2112 16.6039 21.2087 16.6058L21.0671 16.714C20.9842 16.7774 20.8758 16.8604 20.7674 16.9434C20.6584 17.0268 20.5586 17.1033 20.4838 17.1607C20.3984 17.2262 20.3455 17.2668 20.3483 17.2644C19.8638 17.6715 19.4326 18.0735 19.1974 18.451C19.0847 18.6319 19.0513 18.7546 19.0467 18.8269C19.0435 18.8761 19.0488 18.9397 19.1258 19.0431C19.3227 19.3073 19.6448 19.4619 20.0624 19.4661C20.4851 19.4703 20.94 19.3145 21.286 19.0398C21.3236 19.0094 21.3591 18.9865 21.389 18.9694L21.3903 18.9686L24.7175 16.507C24.9858 16.2931 25.3894 16.0718 25.8128 15.9286C26.2245 15.7893 26.8078 15.671 27.3515 15.8622C27.9024 16.056 28.3848 16.5758 28.5672 17.1871C28.6644 17.5129 28.6845 17.8922 28.5575 18.2747C28.4296 18.6598 28.1741 18.9834 27.8251 19.2329C27.4894 19.4729 27.4288 20.0258 27.8754 20.3798L33 24.4416ZM37.6772 18.8369C37.248 18.8369 36.9 19.1987 36.9 19.645V25.7917C36.9 26.1536 37.2676 26.6429 37.978 26.6429C38.2412 26.6429 38.4544 26.4211 38.4544 26.1476V19.645C38.4544 19.1987 38.1065 18.8369 37.6772 18.8369ZM35.3542 19.645C35.3542 18.3111 36.3943 17.2298 37.6772 17.2298C38.9602 17.2298 40.0002 18.3111 40.0002 19.645V26.1476C40.0002 27.3087 39.0949 28.25 37.978 28.25C36.641 28.25 35.3542 27.2603 35.3542 25.7917V19.645Z" fill="#EE4FAF"/>
</svg>
