<svg width="44" height="44" viewBox="0 0 44 44" fill="none" xmlns="http://www.w3.org/2000/svg">
<path fill-rule="evenodd" clip-rule="evenodd" d="M35.1502 13.8247C34.8951 11.2703 34.4887 9.28142 33.8456 8.49969C31.1943 5.28542 12.6224 5.0502 10.5137 8.49969C9.99791 9.34481 9.63615 11.3266 9.39338 13.8289C8.61003 13.9232 8 14.5986 8 15.4254V18.5545C8 19.2503 8.43053 19.837 9.03162 20.0659C8.88926 24.9943 9.0048 30.1362 9.218 32.6934C9.218 34.6674 10.513 34.34 10.513 34.34H11.7269V36.4711C11.7269 37.3162 12.5777 38 13.6258 38C14.6753 38 15.526 37.3162 15.526 36.4711V34.34H29.6482V36.4711C29.6482 37.3162 30.4983 38 31.5478 38C32.5959 38 33.4466 37.3162 33.4466 36.4711V34.34H33.8456C33.8456 34.34 35.3697 34.554 35.4673 33.6244C35.4673 32.882 35.4805 31.8766 35.4963 30.6929V30.6927V30.6925V30.6924C35.5343 27.81 35.5865 23.8692 35.4948 20.0877C36.1337 19.8827 36.6 19.2799 36.6 18.5545V15.4254C36.6007 14.5789 35.9611 13.8923 35.1502 13.8247ZM15.0494 8.95817H29.3099V11.1674H15.0494V8.95817ZM13.2262 29.7474C13.2262 30.8939 14.1333 31.8236 15.253 31.8236C16.3733 31.8236 17.2805 30.8939 17.2805 29.7474C17.2805 28.6016 16.3726 27.6726 15.253 27.6726C14.1333 27.6726 13.2262 28.6016 13.2262 29.7474ZM29.2335 31.8236C28.1146 31.8236 27.2053 30.8939 27.2053 29.7474C27.2053 28.6016 28.1138 27.6726 29.2335 27.6726C30.3532 27.6726 31.2603 28.6016 31.2603 29.7474C31.261 30.8939 30.3532 31.8236 29.2335 31.8236ZM12.5488 22.7385H31.8105V12.3929H12.5488V22.7385Z" fill="#2997FF"/>
</svg>
