<?xml version="1.0" encoding="UTF-8"?>
<svg width="36px" height="36px" viewBox="0 0 36 36" version="1.1" xmlns="http://www.w3.org/2000/svg" xmlns:xlink="http://www.w3.org/1999/xlink">
    <title>SL4/Vantaidulich/Datphong@1.5x</title>
    <defs>
        <linearGradient x1="58.1081512%" y1="60.58%" x2="50%" y2="40.5944879%" id="linearGradient-1">
            <stop stop-color="#3A94E7" offset="0%"></stop>
            <stop stop-color="#57BEFA" offset="100%"></stop>
        </linearGradient>
    </defs>
    <g id="SL4/Vantaidulich/Datphong" stroke="none" stroke-width="1" fill="none" fill-rule="evenodd">
        <g id="Group-12" transform="translate(3.000000, 7.000000)">
            <path d="M2,8 C2.55228475,8 3,8.44771525 3,9 L3,10.299 L27,10.299 L27,9 C27,8.44771525 27.4477153,8 28,8 L29,8 C29.5522847,8 30,8.44771525 30,9 L30,20.8 C30,21.3522847 29.5522847,21.8 29,21.8 L28,21.8 C27.4477153,21.8 27,21.3522847 27,20.8 L27,19.499 L3,19.499 L3,20.8 C3,21.3522847 2.55228475,21.8 2,21.8 L1,21.8 C0.44771525,21.8 1.04869017e-15,21.3522847 0,20.8 L0,9 C-6.76353751e-17,8.44771525 0.44771525,8 1,8 L2,8 Z" id="Combined-Shape" fill="url(#linearGradient-1)"></path>
            <path d="M4,8.99091065 L5.05552129,8.99091065 C5.60780604,8.99091065 6.05552129,8.5431954 6.05552129,7.99091065 L6.05552129,6.99936748 C6.05552129,6.44708273 6.50323654,5.99936748 7.05552129,5.99936748 L12.4933593,5.99936748 C13.0456441,5.99936748 13.4933593,6.44708273 13.4933593,6.99936748 L13.4933593,7.99091065 C13.4933593,8.5431954 13.9410746,8.99091065 14.4933593,8.99091065 L15.5132245,8.99091065 C16.0655093,8.99091065 16.5132245,8.5431954 16.5132245,7.99091065 L16.5132245,6.99936748 C16.5132245,6.44708273 16.9609398,5.99936748 17.5132245,5.99936748 L23.0105358,5.99936748 C23.5628206,5.99936748 24.0105358,6.44708273 24.0105358,6.99936748 L24.0105358,7.99091065 C24.0105358,8.5431954 24.4582511,8.99091065 25.0105358,8.99091065 L26,8.99091065 C26.5522847,8.99091065 27,8.5431954 27,7.99091065 L27,3 C27,1.34314575 25.6568542,-7.48448398e-16 24,-8.8817842e-16 L6,-8.8817842e-16 C4.34314575,-1.39730022e-16 3,1.34314575 3,3 L3,7.99091065 C3,8.5431954 3.44771525,8.99091065 4,8.99091065 Z" id="Path-21" fill="#ACE1FF"></path>
        </g>
    </g>
</svg>