<svg width="45" height="45" viewBox="0 0 45 45" fill="none" xmlns="http://www.w3.org/2000/svg">
<g clip-path="url(#clip0_4491_2529)">
<path d="M43.803 17.0793C42.642 15.5178 40.707 14.3118 38.52 14.0193C37.791 13.9203 37.035 13.9203 36.27 14.0463C34.506 14.5503 32.814 15.1623 31.4055 15.6978L29.853 14.5143C30.2085 14.3163 30.3975 13.8573 30.2805 13.4613C30.1635 13.0653 29.754 12.7863 29.349 12.8223C28.935 12.9078 28.53 13.0788 28.1205 13.2183L22.7835 9.16828C22.4235 8.92978 22.239 8.99728 21.888 9.05578L18.756 10.4103C18.243 10.6308 18.063 11.3913 18.4185 11.8233L24.03 18.6903C20.304 20.2518 16.4295 21.9213 13.032 23.2893L10.7955 21.0303C10.5165 20.7468 10.044 20.6838 9.70654 20.8908L7.48354 22.2453C7.08304 22.4838 6.93004 23.0643 7.16404 23.4738L10.2825 28.8513C10.476 29.1933 10.9125 29.3733 11.286 29.2743L25.371 25.4223V31.5603C25.371 32.0328 25.7985 32.4648 26.2665 32.4648H28.503C28.8495 32.4693 29.187 32.2488 29.3265 31.9293L31.257 27.6138L32.373 27.2313C32.7645 27.1098 33.048 26.6913 33.0075 26.2818C32.967 25.8723 32.6115 25.5123 32.2065 25.4718L33.1875 23.2848C36.2925 22.3353 39.96 21.5028 42.606 20.6883C43.389 20.4228 43.713 19.9143 43.974 19.2888C44.1855 18.4293 44.1315 17.7363 43.803 17.0793ZM20.5785 11.5983L22.131 10.9323L29.4525 16.4628C28.2645 16.9353 27.045 17.4393 25.7625 17.9748L20.5785 11.5983ZM27.927 30.6513H27.1575V24.9273L30.942 23.8968L27.927 30.6513ZM41.832 19.0413L11.4795 27.3393L9.15754 23.3208L10.026 22.8123L12.204 24.9993C12.447 25.2423 12.834 25.3188 13.1535 25.1973C21.033 22.0518 31.9005 17.1288 36.603 15.8283C36.891 15.7788 37.1925 15.7698 37.44 15.7563C39.393 15.7608 41.292 16.8093 42.291 18.0828C42.5025 18.5193 42.21 18.8838 41.832 19.0413Z" fill="#A50064"/>
<path d="M14.7644 14.4603L0.899902 19.8738L1.5569 21.5703L15.4214 16.1523L14.7644 14.4603Z" fill="#F45197"/>
<path d="M6.26841 22.1464L1.79541 23.9509L2.45241 25.6159L6.92541 23.8114L6.26841 22.1464Z" fill="#F45197"/>
<path d="M8.93686 27.5643L3.56836 29.8233L4.25236 31.4883L9.62086 29.2293L8.93686 27.5643Z" fill="#F45197"/>
<path d="M19.6694 28.4689L5.35938 34.3369L6.04338 36.0019L20.3534 30.1339L19.6694 28.4689Z" fill="#F45197"/>
</g>
<defs>
<clipPath id="clip0_4491_2529">
<rect width="45" height="45" fill="white"/>
</clipPath>
</defs>
</svg>
